# Blender 4.2.16 LTS
# www.blender.org
mtllib light fifty details.mtl
o Cube_006_Cube_070_85918211090205
v -2.530373 0.020359 -0.000000
v -2.530373 0.132359 -0.000000
v -2.412555 0.020359 0.144000
v -2.412555 0.020359 -0.144000
v -2.593281 0.155559 -0.144000
v -2.713955 -0.002841 -0.000000
v 2.497323 -0.066469 -0.000000
v 2.472049 -0.166185 -0.000000
v 2.497323 -0.066469 -0.127014
v 2.497323 -0.066469 0.127014
v 2.549627 0.079237 -0.129988
v 2.549627 0.079237 -0.000000
v 2.472049 -0.166185 0.100421
v 2.472049 -0.166185 -0.100421
v 2.475530 -0.265901 0.000000
v 2.475530 -0.265901 -0.086828
v -1.256288 0.168387 -0.062984
v -1.256288 0.215659 0.029270
v -1.256288 0.215659 -0.030046
v -1.256288 0.200024 -0.068452
v 2.498171 -0.335179 0.000000
v 2.474470 -0.418503 0.000000
v 2.474470 -0.418503 0.084261
v 2.397800 -0.438798 0.000000
v -1.125566 -0.053838 -0.053758
v -1.125566 -0.135500 -0.000000
v -1.125566 -0.034644 -0.000000
v -1.125566 -0.107500 -0.084000
v -1.125566 -0.053838 0.053758
v -0.775566 -0.135500 -0.000000
v -0.775566 -0.034644 -0.000000
v -0.775566 -0.011169 -0.053842
v -0.775566 -0.053838 0.053758
v -0.775566 -0.011169 0.053842
v 1.571463 0.567978 -0.060458
v 2.533537 0.169298 0.094332
v 2.533537 0.169298 -0.000000
v -0.335074 0.626682 -0.044617
v -0.335074 0.626682 0.044617
v -0.335074 0.567978 0.044617
v -0.335074 0.567978 0.060458
v 1.193283 0.168387 0.062208
v 1.193283 0.215659 0.029270
v 1.193283 0.168387 -0.062984
v 1.020273 0.500802 -0.100100
v 1.020273 0.276769 0.066733
v 1.020273 0.276769 -0.066733
v 1.020273 0.160393 -0.083289
v -0.775566 -0.107500 0.084000
v -1.041566 -0.107500 -0.084000
v -1.041566 -0.107500 0.084000
v 0.897751 0.503297 0.097044
v 0.897751 0.503297 -0.097044
v 0.897751 0.540477 0.051553
v 1.020273 0.386402 -0.100100
v 0.805677 0.394293 -0.095886
v -2.344062 -0.002841 -0.090196
v -2.593281 -0.002841 0.144000
v -2.379944 -0.002841 0.144000
v 0.627508 0.658641 -0.053683
v 0.734875 0.658641 0.053683
v 1.020273 0.397842 -0.100100
v 1.020273 0.397842 0.100100
v 0.681191 0.595721 0.058400
v 0.681191 0.588053 0.071377
v 0.731663 0.588053 0.050471
v 0.722486 0.595721 -0.041295
v 0.681191 0.588052 -0.071378
v 0.681191 0.595721 -0.058400
v 0.630720 0.588053 -0.050472
v 0.630720 0.508374 -0.130150
v 0.681191 0.529279 -0.058610
v 0.630720 0.508374 -0.058610
v 0.609814 0.457902 -0.130150
v 0.609814 0.457902 -0.058610
v 0.630720 0.407431 -0.130150
v 0.630720 0.407431 -0.058610
v 0.681191 0.386525 -0.058610
v 0.731663 0.407431 -0.058610
v 0.752569 0.457902 -0.058610
v 0.731663 0.508374 -0.130150
v 0.731663 0.508374 -0.058610
v 0.722486 0.595721 0.041295
v 0.739591 0.595721 -0.000000
v 0.722486 0.620031 -0.041295
v 0.639896 0.620031 -0.041295
v 0.639896 0.595721 -0.041295
v 0.622792 0.620031 -0.000000
v 0.622792 0.595721 -0.000000
v 0.639896 0.620031 0.041295
v 0.639896 0.595721 0.041295
v 0.681191 0.620031 0.058400
v 0.342109 0.558002 0.030030
v 0.856910 0.558002 -0.030030
v 1.020273 0.558002 0.030030
v 0.762777 0.553788 -0.095886
v 0.603282 0.553788 0.095886
v 0.762777 0.553788 0.095886
v 0.734875 0.404219 0.200739
v 0.627508 0.404219 0.200739
v 0.757111 0.457902 0.200739
v 0.627508 0.511585 0.200739
v 0.681191 0.533822 0.200739
v 0.734875 0.511585 -0.200739
v 0.605272 0.457902 -0.200739
v 0.627508 0.511585 -0.200739
v 0.757111 0.457902 -0.200739
v 0.734875 0.404219 -0.200739
v 0.681191 0.381982 -0.200739
v 0.505473 0.160393 0.083289
v 2.397800 -0.438798 -0.083777
v 2.329627 0.079237 -0.129988
v 2.329627 -0.443339 0.083777
v 2.475530 -0.265901 0.086828
v 2.397800 -0.438798 0.083777
v 2.498171 -0.335179 0.084746
v 2.549627 0.079237 0.129988
v 0.464632 0.540477 0.051553
v 0.505473 0.558002 0.030030
v 0.382950 0.503297 -0.097044
v 0.342110 0.500802 0.100100
v 0.382950 0.503297 0.097044
v 1.020273 0.558002 -0.030030
v 0.897751 0.540477 -0.051553
v 1.020273 0.500802 0.100100
v 0.382950 0.540477 0.051553
v 0.979432 0.503297 0.097044
v 0.979432 0.503297 -0.097044
v -2.412555 0.132359 -0.144000
v -2.379944 -0.002841 -0.144000
v -2.552554 0.020359 -0.144000
v -2.593281 -0.002841 -0.144000
v -2.379944 0.155559 0.144000
v -2.412555 0.132359 0.144000
v 0.722486 0.416607 0.137819
v 0.630720 0.508374 0.130150
v 0.639896 0.416607 0.137819
v 0.630720 0.407430 0.130151
v 0.681191 0.399502 0.137819
v 0.722486 0.499197 -0.137819
v 0.681191 0.516302 -0.137819
v 0.752569 0.457902 -0.130150
v 0.731663 0.407431 -0.130150
v 0.722486 0.416607 -0.137819
v 0.681191 0.386525 -0.130150
v 0.639896 0.416607 -0.137819
v 0.639896 0.499197 -0.137819
v 0.681191 0.529279 -0.130150
v 0.342110 0.160393 -0.083289
v 1.020273 0.243402 -0.100100
v 1.020273 0.160393 0.083289
v 1.020273 0.243402 0.100100
v 0.505473 0.500802 -0.100100
v 0.342110 0.500802 -0.100100
v 0.342110 0.558002 -0.030030
v 0.464632 0.540477 -0.051553
v 0.464632 0.503297 -0.097044
v 0.342110 0.386402 0.100100
v 0.342110 0.310135 -0.066733
v 0.342110 0.276769 0.066733
v 0.342110 0.243402 0.100100
v 0.342110 0.243402 -0.100100
v 0.342110 0.160393 0.083289
v 0.505473 0.500802 0.100100
v 0.342110 0.386402 -0.100100
v 0.505473 0.386402 -0.100100
v 0.342110 0.343502 -0.100100
v 0.856910 0.397842 0.100100
v 0.856910 0.500802 -0.100100
v 1.020273 0.343502 0.100100
v 0.603282 0.362016 -0.095886
v 0.571006 0.394293 0.095886
v 0.773401 0.362016 0.095886
v 0.805677 0.394293 0.095886
v 0.603282 0.553788 -0.095886
v 0.805677 0.457902 -0.095886
v 0.571006 0.457902 0.095886
v 0.805677 0.457902 0.095886
v -1.256288 0.200024 0.067675
v -1.256288 0.168387 0.062208
v 0.505473 0.386402 0.100100
v 0.350278 0.392122 0.090090
v 1.020273 0.386402 0.100100
v 0.856910 0.386402 -0.100100
v 0.505473 0.243402 -0.100100
v 0.342110 0.276769 -0.066733
v 0.505473 0.276769 -0.066733
v 0.505473 0.243402 0.100100
v 0.505473 0.310135 0.066733
v 0.342110 0.310135 0.066733
v 0.342110 0.343502 0.100100
v 0.856910 0.276769 -0.066733
v 1.020273 0.310135 -0.066733
v 0.856910 0.310135 -0.066733
v 1.020273 0.343502 -0.100100
v 0.856910 0.243402 0.100100
v 0.856910 0.310135 0.066733
v 1.020273 0.310135 0.066733
v 0.856910 0.343502 0.100100
v 2.498171 -0.335179 -0.084746
v 2.474470 -0.418503 -0.084261
v 1.518662 0.567978 -0.060458
v 1.571463 0.626682 -0.060458
v 1.571463 0.567978 0.060457
v 1.518662 0.622392 0.060457
v 0.497305 0.392122 0.090090
v -0.335074 0.626682 0.060458
v -0.335074 0.626682 -0.060457
v -0.282273 0.622392 -0.060457
v -0.335074 0.567978 -0.060457
v 0.505473 0.558002 -0.030030
v 0.505473 0.343502 -0.100100
v 0.505473 0.343502 0.100100
v 0.505473 0.310135 -0.066733
v 0.505473 0.276769 0.066733
v 0.505473 0.160393 -0.083289
v 0.571006 0.521511 -0.095886
v 0.342110 0.397842 -0.100100
v 0.350278 0.392122 -0.090090
v 0.773401 0.362016 -0.095886
v 2.329627 0.079237 0.129988
v 0.505473 0.397842 -0.100100
v 0.342110 0.397842 0.100100
v 1.012105 0.392122 -0.090090
v 0.865078 0.392122 0.090090
v 1.012105 0.392122 0.090090
v 0.739591 0.457902 -0.162129
v 0.722486 0.499197 -0.162129
v 0.739591 0.457902 -0.137819
v 0.722486 0.416607 -0.162129
v 0.681191 0.399502 -0.137819
v 0.639896 0.416607 -0.162129
v 0.622792 0.457902 -0.162129
v 0.622792 0.457902 -0.137819
v 0.639896 0.499197 -0.162129
v 0.464632 0.503297 0.097044
v 0.505473 0.397842 0.100100
v 0.497305 0.392122 -0.090090
v 1.518662 0.567978 -0.044617
v 1.571463 0.567978 -0.044617
v 1.518662 0.622392 -0.044617
v 1.571463 0.626682 -0.044617
v 1.560414 0.633432 0.044617
v 1.571463 0.567978 0.044617
v 1.518662 0.567978 0.044617
v -0.324026 0.633432 0.044617
v -0.282273 0.622392 -0.044617
v -0.335074 0.567978 -0.044617
v -0.282273 0.567978 -0.044617
v -0.691566 -0.011169 0.053842
v -0.691566 -0.053838 0.053758
v -0.691566 -0.107500 0.084000
v -0.775566 -0.053838 -0.053758
v -0.775566 -0.107500 -0.084000
v -0.691566 -0.107500 -0.084000
v -1.041566 -0.011169 0.053842
v -1.125566 -0.011169 0.053842
v -1.041566 -0.053838 0.053758
v -1.125566 -0.107500 0.084000
v -1.125566 -0.011169 -0.053842
v 0.382950 0.540477 -0.051553
v 0.630720 0.516512 0.050472
v 0.681191 0.516512 0.071378
v 0.630720 0.588053 0.050471
v 0.609814 0.516512 -0.000000
v 0.609814 0.588053 -0.000000
v 0.630720 0.516512 -0.050471
v 0.681191 0.516512 -0.071377
v 0.731663 0.588052 -0.050472
v 0.731663 0.516512 -0.050471
v 0.752569 0.516512 -0.000000
v 0.752569 0.588053 -0.000000
v 0.731663 0.516512 0.050472
v 0.630720 0.407430 0.058610
v 0.609814 0.457902 0.130150
v 0.609814 0.457902 0.058610
v 0.630720 0.508373 0.058610
v 0.681191 0.529279 0.130150
v 0.681191 0.529279 0.058610
v 0.731663 0.508373 0.130150
v 0.731663 0.508373 0.058610
v 0.752569 0.457902 0.130150
v 0.752569 0.457902 0.058610
v 0.731663 0.407430 0.058610
v 0.731663 0.407430 0.130151
v 0.681191 0.386525 0.130151
v 0.681191 0.386524 0.058610
v 0.571006 0.394293 -0.095886
v 0.603282 0.362016 0.095886
v 0.571006 0.457902 -0.095886
v 0.571006 0.521511 0.095886
v 1.193283 0.200024 -0.068452
v 1.193283 0.215659 -0.030046
v 1.193283 0.200024 0.067675
v 0.722486 0.499197 0.162129
v 0.681191 0.516302 0.162129
v 0.639896 0.499197 0.162129
v 0.622792 0.457902 0.162129
v 0.734875 0.404219 -0.162129
v 0.757111 0.457902 -0.162129
v 0.681191 0.381982 -0.162129
v 0.681191 0.399502 -0.162129
v 0.681191 0.533822 -0.162129
v 0.627508 0.404219 -0.162129
v 0.627508 0.511585 -0.162129
v 0.681191 0.516302 -0.162129
v 2.329627 0.206672 -0.000000
v 2.329627 0.169298 0.094332
v 2.472261 0.206672 -0.000000
v 2.533537 0.169298 -0.094332
v -2.379944 0.155559 -0.144000
v -2.713955 0.155559 -0.000000
v -2.593281 0.155559 0.144000
v 0.979432 0.540477 -0.051553
v 0.865078 0.392122 -0.090090
v 0.739591 0.457902 0.162129
v 0.739591 0.457902 0.137819
v 0.722486 0.416607 0.162129
v 0.681191 0.399502 0.162129
v 0.722486 0.499197 0.137819
v 0.681191 0.516302 0.137819
v 0.639896 0.499197 0.137819
v 0.622792 0.457902 0.137819
v 0.639896 0.416607 0.162129
v 0.627508 0.404219 0.162129
v 0.605272 0.457902 0.162129
v 0.605272 0.457902 0.200739
v 0.627508 0.511585 0.162129
v 0.681191 0.533822 0.162129
v 0.734875 0.511585 0.162129
v 0.734875 0.511585 0.200739
v 0.757111 0.457902 0.162129
v 0.734875 0.404219 0.162129
v 0.681191 0.381982 0.162129
v 0.681191 0.381982 0.200739
v 0.605272 0.457902 -0.162129
v 0.627508 0.404219 -0.200739
v 0.734875 0.511585 -0.162129
v 0.681191 0.533822 -0.200739
v 0.627508 0.658641 0.053683
v 0.605272 0.658641 -0.000000
v 0.681191 0.620031 -0.075920
v 0.681191 0.658641 -0.075920
v 0.734875 0.658641 -0.053683
v 0.757111 0.658641 -0.000000
v 0.681191 0.658641 0.075920
v 0.734875 0.620031 -0.053683
v 0.739591 0.620031 -0.000000
v 0.757111 0.620031 -0.000000
v 0.734875 0.620031 0.053683
v 0.681191 0.620031 -0.058400
v 0.722486 0.620031 0.041295
v 0.681191 0.620031 0.075920
v 0.627508 0.620031 -0.053683
v 0.605272 0.620031 -0.000000
v 0.627508 0.620031 0.053683
v -0.282273 0.567978 0.044617
v -0.282273 0.622392 0.044617
v -0.282273 0.622392 0.060458
v -0.282273 0.567978 0.060458
v -0.324026 0.633432 0.060458
v -0.324026 0.633432 -0.044617
v -0.324026 0.633432 -0.060457
v -0.282273 0.567978 -0.060457
v 0.856910 0.397842 -0.100100
v 0.856910 0.500802 0.100100
v 0.856910 0.558002 0.030030
v 0.856910 0.343502 -0.100100
v 0.856910 0.386402 0.100100
v 0.856910 0.276769 0.066733
v 0.856910 0.160393 0.083289
v 0.856910 0.243402 -0.100100
v 0.856910 0.160393 -0.083289
v 0.979432 0.540477 0.051553
v 1.518662 0.622392 -0.060458
v 1.560414 0.633432 -0.060458
v 1.560414 0.633432 -0.044617
v 1.518662 0.622392 0.044617
v 1.518662 0.567978 0.060457
v 1.560414 0.633432 0.060457
v 1.571463 0.626682 0.044617
v 1.571463 0.626682 0.060457
v -0.691566 -0.135500 -0.000000
v -0.691566 -0.034644 -0.000000
v -0.691566 -0.053838 -0.053758
v -0.691566 -0.011169 -0.053842
v -1.041566 -0.135500 -0.000000
v -1.041566 -0.034644 -0.000000
v -1.041566 -0.053838 -0.053758
v -1.041566 -0.011169 -0.053842
v 2.329627 -0.443339 0.000000
v 2.329627 -0.443339 -0.083777
v 2.329627 0.169298 -0.094332
v -2.419648 -0.002841 -0.000000
v -2.419648 0.155559 -0.000000
v -2.344062 0.155559 -0.090196
v -2.344062 -0.002841 0.090196
v -2.344062 0.155559 0.090196
v -2.552554 0.132359 -0.144000
v -2.670373 0.132359 -0.000000
v -2.670373 0.020359 -0.000000
v -2.552554 0.132359 0.144000
v -2.552554 0.020359 0.144000
v 0.178884 -0.072037 -0.101762
v 0.138911 -0.072037 -0.101762
v 0.178884 -0.112010 -0.101762
v 0.138911 -0.112010 -0.101762
v 0.158898 -0.120289 -0.101762
v 0.130633 -0.092024 0.101762
v 0.138911 -0.112010 0.101762
v 0.187163 -0.092024 0.101762
v 0.158898 -0.063758 0.101762
v 1.338911 -0.072037 -0.091247
v 1.378884 -0.072037 -0.091247
v 1.358898 -0.063758 -0.091247
v 1.338911 -0.112010 -0.091247
v 1.358898 -0.120289 -0.091247
v 1.338911 -0.112010 0.091247
v 1.378884 -0.112010 0.091247
v -1.139697 -0.115533 0.025660
v -0.690581 -0.115533 0.025660
v -1.139697 -0.126161 -0.000000
v -0.690581 -0.126161 -0.000000
v -1.139697 -0.115533 -0.025660
v -1.139697 -0.089873 -0.036288
v -0.690581 -0.089873 -0.036288
v -1.139697 -0.064214 -0.025660
v -1.139697 -0.053585 -0.000000
v -0.690581 -0.053585 -0.000000
v -1.139697 -0.064214 0.025660
v -1.139697 -0.089873 0.036288
v -0.690581 -0.089873 0.036288
v 0.138911 -0.072037 0.101762
v 0.130633 -0.092024 -0.101762
v 0.158898 -0.120289 0.101762
v 0.178884 -0.112010 0.101762
v 0.187163 -0.092024 -0.101762
v 0.178884 -0.072037 0.101762
v 0.158898 -0.063758 -0.101762
v -0.690581 -0.115533 -0.025660
v -0.690581 -0.064214 0.025660
v -0.690581 -0.064214 -0.025660
v 1.358898 -0.063758 0.091247
v 1.338911 -0.072037 0.091247
v 1.330632 -0.092024 -0.091247
v 1.330632 -0.092024 0.091247
v 1.358898 -0.120289 0.091247
v 1.378884 -0.112010 -0.091247
v 1.387163 -0.092024 -0.091247
v 1.387163 -0.092024 0.091247
v 1.378884 -0.072037 0.091247
v 1.523919 0.563123 0.026058
v 1.501427 0.584664 -0.026058
v 1.523919 0.563123 -0.026058
v 1.501427 0.584664 0.026058
v 1.548670 0.560379 -0.026058
v 1.567729 0.581487 -0.026058
v 1.559166 0.608108 0.026058
v 1.546683 0.590618 -0.066496
v 1.535577 0.595216 -0.066496
v 1.530978 0.606323 -0.066496
v 1.535577 0.617427 0.066496
v 1.535577 0.617427 -0.066496
v 1.546683 0.622028 0.066496
v 1.546683 0.622028 -0.066496
v 1.557788 0.617427 0.066496
v 1.557788 0.617427 -0.066496
v 1.557788 0.595217 0.066496
v 1.530978 0.606323 0.066496
v 1.535577 0.595216 0.066496
v 1.546683 0.590618 0.066496
v 1.562388 0.606322 0.066496
v 1.562388 0.606322 -0.066496
v 1.557788 0.595217 -0.066496
v 1.401216 0.678352 0.156028
v 1.323202 0.756366 -0.110329
v 1.323202 0.756366 0.110329
v 1.532219 0.581719 -0.026058
v 1.515825 0.599062 -0.026058
v 1.532219 0.581719 0.026058
v 1.547916 0.586190 -0.026058
v 1.541342 0.579377 -0.026058
v 1.559166 0.608108 -0.026058
v 1.548670 0.560379 0.026058
v 1.547916 0.586190 0.026058
v 1.567729 0.581487 0.026058
v 1.544611 0.593865 0.026058
v 1.493355 0.630211 0.099194
v 1.493355 0.630211 -0.099194
v 1.501229 0.622337 0.110329
v 1.501229 0.622337 -0.110329
v 1.353074 0.770492 -0.099194
v 1.480116 0.616971 0.099194
v 1.522408 0.601158 -0.000000
v 1.480115 0.616971 -0.099194
v 1.423215 0.700351 -0.140281
v 1.423215 0.700351 0.140281
v 1.409975 0.687111 -0.140281
v 1.353074 0.770492 0.099194
v 1.339834 0.757252 -0.099194
v 1.324021 0.799545 -0.000000
v 1.409975 0.687111 0.140281
v 1.509168 0.587918 -0.000000
v 1.310781 0.786305 -0.000000
v 1.339834 0.757252 0.099194
v 1.533544 0.590022 -0.000000
v 1.511545 0.568023 -0.000000
v 1.479230 0.600338 0.110329
v 1.479230 0.600338 -0.110329
v 1.423215 0.700351 0.156028
v 1.401216 0.678352 -0.156028
v 1.345201 0.778365 0.110329
v 1.423215 0.700351 -0.156028
v 1.312886 0.810680 -0.000000
v 1.345201 0.778365 -0.110329
v 1.290887 0.788681 -0.000000
v 1.515825 0.599062 0.026058
v 1.541342 0.579377 0.026058
v 1.544611 0.593865 -0.026058
v -0.281263 0.563123 -0.026058
v -0.281263 0.563123 0.026058
v -0.306014 0.560379 0.026058
v -0.325073 0.581487 0.026058
v -0.325073 0.581487 -0.026058
v -0.316510 0.608108 0.026058
v -0.316510 0.608108 -0.026058
v -0.304027 0.590618 -0.066496
v -0.304027 0.590618 0.066496
v -0.315132 0.595217 0.066496
v -0.292921 0.595217 -0.066496
v -0.292921 0.617427 -0.066496
v -0.304027 0.622028 -0.066496
v -0.304027 0.622028 0.066496
v -0.315132 0.617428 0.066496
v -0.288322 0.606323 -0.066496
v -0.315132 0.617428 -0.066496
v -0.319732 0.606322 -0.066496
v -0.315132 0.595217 -0.066496
v -0.292921 0.617427 0.066496
v -0.288322 0.606323 0.066496
v -0.292921 0.595217 0.066496
v -0.319732 0.606322 0.066496
v -0.158560 0.678352 -0.156028
v -0.080546 0.756366 0.110329
v -0.080546 0.756366 -0.110329
v -0.268889 0.568023 -0.000000
v -0.236574 0.600338 -0.110329
v -0.236574 0.600338 0.110329
v -0.273169 0.599062 -0.026058
v -0.258771 0.584664 -0.026058
v -0.289563 0.581719 -0.026058
v -0.289563 0.581719 0.026058
v -0.258771 0.584664 0.026058
v -0.298686 0.579377 -0.026058
v -0.306014 0.560379 -0.026058
v -0.298686 0.579377 0.026058
v -0.301955 0.593865 -0.026058
v -0.250699 0.630211 -0.099194
v -0.290888 0.590022 -0.000000
v -0.180559 0.700351 -0.156028
v -0.180559 0.700351 0.156028
v -0.180559 0.700351 -0.140281
v -0.102545 0.778365 -0.110329
v -0.110418 0.770492 0.099194
v -0.237460 0.616971 -0.099194
v -0.279752 0.601158 -0.000000
v -0.250699 0.630211 0.099194
v -0.180559 0.700351 0.140281
v -0.167319 0.687111 0.140281
v -0.097178 0.757252 -0.099194
v -0.110418 0.770492 -0.099194
v -0.068125 0.786305 -0.000000
v -0.081365 0.799545 -0.000000
v -0.167319 0.687111 -0.140281
v -0.266512 0.587918 -0.000000
v -0.237459 0.616971 0.099194
v -0.097178 0.757252 0.099194
v -0.258573 0.622337 -0.110329
v -0.258573 0.622337 0.110329
v -0.158560 0.678352 0.156028
v -0.070230 0.810680 -0.000000
v -0.102545 0.778365 0.110329
v -0.048231 0.788681 -0.000000
v -0.273169 0.599062 0.026058
v -0.305260 0.586190 -0.026058
v -0.305260 0.586190 0.026058
v -0.301955 0.593865 0.026058
vn -0.4743 0.8804 -0.0000
vn -0.2060 -0.1500 0.9670
vn -0.4743 -0.8804 -0.0000
vn -0.2060 0.1500 0.9670
vn -0.2060 -0.1500 -0.9670
vn -0.2060 0.1500 -0.9670
vn -0.3308 0.6232 -0.7087
vn -0.3308 -0.6232 -0.7087
vn -0.8095 -0.5872 -0.0000
vn -0.8095 0.5872 -0.0000
vn -0.3308 -0.6232 0.7087
vn -0.3308 0.6232 0.7087
vn 0.9564 -0.2921 -0.0000
vn 0.6837 -0.1717 0.7093
vn 0.9943 -0.1065 -0.0000
vn 0.5803 -0.3146 0.7512
vn 0.6837 -0.1717 -0.7093
vn 0.5803 -0.3146 -0.7512
vn 0.9965 -0.0838 -0.0000
vn 0.7208 0.0489 -0.6914
vn 0.7208 0.0489 0.6914
vn 0.5766 0.6381 -0.5103
vn 0.8254 0.5646 -0.0000
vn 0.5766 0.6381 0.5103
vn 0.7208 0.0419 0.6919
vn 0.9847 0.1745 -0.0000
vn 0.7208 0.0419 -0.6919
vn 0.7681 0.0039 0.6403
vn 0.9998 0.0194 -0.0000
vn 0.7681 0.0039 -0.6403
vn -0.7427 -0.1141 -0.6599
vn -0.7427 -0.1140 0.6599
vn -0.6663 0.7318 0.1432
vn -0.5895 0.3919 0.7063
vn -0.6663 0.7318 -0.1432
vn -0.5895 0.3919 -0.7063
vn 0.5528 -0.5665 -0.6111
vn 0.7006 -0.7136 -0.0000
vn 0.5528 -0.5665 0.6111
vn 0.1183 -0.7239 -0.6797
vn 0.1619 -0.9868 -0.0000
vn -0.5572 -0.6145 -0.5585
vn -0.6832 -0.7302 -0.0000
vn 0.1183 -0.7239 0.6797
vn -0.5572 -0.6145 0.5585
vn -0.7692 0.1616 -0.6183
vn -0.6424 -0.7664 -0.0000
vn -1.0000 -0.0000 -0.0000
vn -0.5679 -0.2961 -0.7680
vn -0.5933 -0.0016 -0.8050
vn -0.7692 0.1616 0.6183
vn -0.5933 -0.0016 0.8050
vn -0.5679 -0.2960 0.7680
vn 0.7071 -0.0000 -0.7071
vn 0.6899 0.3870 -0.6118
vn 0.6899 0.3870 0.6118
vn 0.7071 -0.0000 0.7071
vn 0.1716 0.9852 -0.0000
vn -0.6899 0.3870 -0.6118
vn -0.7071 -0.0000 -0.7071
vn -0.7071 -0.0000 0.7071
vn -0.6899 0.3870 0.6118
vn 0.7427 -0.1140 0.6599
vn 0.6663 0.7318 0.1433
vn 0.5895 0.3919 0.7063
vn 0.7427 -0.1141 -0.6599
vn 0.6663 0.7318 -0.1432
vn 0.5895 0.3919 -0.7063
vn 0.6222 0.3355 -0.7073
vn 0.6258 -0.4555 0.6332
vn 0.6258 -0.4555 -0.6332
vn 0.6222 0.3355 0.7073
vn 0.6389 0.7247 0.2581
vn 0.6389 0.7247 -0.2581
vn 0.6258 0.4555 -0.6332
vn 0.6258 0.4555 0.6332
vn 0.6303 -0.2971 -0.7173
vn 0.6303 -0.2971 0.7173
vn 0.8042 -0.2275 -0.5491
vn 0.8042 -0.2275 0.5491
vn 0.8042 0.2275 -0.5491
vn 0.8042 0.2275 0.5491
vn 0.6146 0.2277 -0.7553
vn 0.6146 0.2277 0.7553
vn 0.5886 -0.6258 -0.5118
vn 0.5886 -0.6258 0.5118
vn 0.5679 -0.2960 -0.7680
vn 0.6424 -0.7664 -0.0000
vn 0.5679 -0.2961 0.7680
vn 0.1132 0.8628 0.4927
vn 0.1133 0.8628 -0.4927
vn 0.5599 0.4747 -0.6791
vn 0.5599 0.4747 0.6791
vn 0.7800 -0.0000 -0.6258
vn 0.7800 -0.0000 0.6258
vn 0.4340 0.6696 0.6028
vn 0.7321 0.1563 -0.6630
vn 0.4340 0.6696 -0.6028
vn 0.7321 0.1563 0.6630
vn 0.7173 -0.2971 -0.6303
vn 0.7173 -0.2971 0.6303
vn 0.4688 -0.8833 -0.0000
vn 0.3721 -0.6148 -0.6954
vn 0.8034 -0.5938 0.0440
vn 0.3721 -0.6147 0.6954
vn 0.8034 -0.5939 -0.0440
vn -0.5490 0.6302 -0.5490
vn 0.5490 0.6303 -0.5490
vn -0.0000 0.6303 -0.7764
vn 0.7764 0.6303 -0.0000
vn -0.7764 0.6302 -0.0000
vn -0.5490 0.6303 0.5490
vn 0.5490 0.6303 0.5490
vn -0.0000 0.6303 0.7764
vn 0.5877 0.5561 0.5877
vn -0.0000 0.5561 0.8311
vn -0.0000 0.4498 0.8931
vn 0.6315 0.4498 0.6315
vn 0.8311 0.5561 -0.0000
vn 0.8931 0.4498 -0.0000
vn 0.5877 0.5561 -0.5877
vn 0.6315 0.4498 -0.6316
vn -0.0000 0.4498 -0.8931
vn -0.0000 0.5561 -0.8311
vn -0.6315 0.4498 -0.6315
vn -0.5877 0.5561 -0.5877
vn -0.8931 0.4498 -0.0000
vn -0.8311 0.5561 -0.0000
vn -0.5877 0.5561 0.5877
vn -0.6315 0.4498 0.6315
vn -0.6315 0.6316 -0.4498
vn -0.0000 1.0000 -0.0000
vn -0.0000 0.8932 -0.4498
vn -0.7071 0.7071 -0.0000
vn -0.8931 -0.0000 -0.4498
vn -0.6316 -0.6316 -0.4498
vn -0.7071 -0.7071 -0.0000
vn -0.0000 -0.8932 -0.4498
vn -0.0000 -1.0000 -0.0000
vn 0.6315 -0.6316 -0.4498
vn 0.7071 -0.7071 -0.0000
vn 0.8931 -0.0000 -0.4498
vn 1.0000 -0.0000 -0.0000
vn 0.6315 0.6316 -0.4498
vn 0.7071 0.7071 -0.0000
vn 0.5944 -0.8042 -0.0000
vn 0.4203 -0.8042 0.4203
vn -0.0000 -0.8042 0.5944
vn 0.4203 -0.8042 -0.4203
vn -0.0000 -0.8042 -0.5944
vn -0.4203 -0.8042 -0.4203
vn -0.5944 -0.8042 -0.0000
vn -0.4203 -0.8042 0.4203
vn -0.6389 0.7247 -0.2581
vn -0.6389 0.7247 0.2580
vn -0.6389 0.7247 0.2581
vn -0.2971 0.7173 -0.6303
vn -0.2971 0.7173 0.6303
vn 0.5490 -0.5490 0.6302
vn -0.7764 -0.0000 0.6303
vn -0.5490 -0.5490 0.6303
vn -0.0000 -0.7764 0.6303
vn 0.7764 -0.0000 0.6302
vn 0.5490 0.5490 0.6302
vn -0.5490 0.5490 0.6303
vn -0.0000 0.7764 0.6303
vn 0.5490 0.5490 -0.6303
vn -0.7764 -0.0000 -0.6303
vn -0.5490 0.5490 -0.6303
vn -0.0000 0.7764 -0.6303
vn 0.7764 -0.0000 -0.6302
vn 0.5490 -0.5490 -0.6302
vn -0.5490 -0.5490 -0.6303
vn -0.0000 -0.7764 -0.6303
vn -0.5886 -0.6258 -0.5118
vn -0.5886 -0.6258 0.5118
vn -0.6627 0.1089 -0.7410
vn -0.6627 0.1089 0.7410
vn -0.5599 0.4747 -0.6791
vn -0.5599 0.4747 0.6791
vn -0.6222 0.3355 -0.7073
vn -0.1133 0.8628 -0.4927
vn 0.1132 0.8628 -0.4927
vn -0.1132 0.8628 0.4927
vn -0.6222 0.3355 0.7073
vn 0.1133 0.8628 0.4927
vn -0.1132 0.8628 -0.4927
vn -0.1133 0.8628 0.4927
vn 0.3721 0.6148 -0.6954
vn 0.2692 -0.4997 -0.8233
vn 0.2692 0.4997 -0.8233
vn 0.2692 0.4997 0.8233
vn 0.2692 -0.4997 0.8233
vn 0.3721 0.6148 0.6954
vn 0.5877 -0.5877 0.5561
vn -0.0000 -0.8931 0.4498
vn 0.6315 -0.6315 0.4498
vn -0.0000 -0.8311 0.5561
vn 0.8931 -0.0000 0.4498
vn 0.8311 -0.0000 0.5561
vn 0.6315 0.6316 0.4498
vn 0.5877 0.5877 0.5561
vn -0.0000 0.8932 0.4498
vn -0.0000 0.8311 0.5561
vn -0.6315 0.6316 0.4498
vn -0.5877 0.5877 0.5561
vn -0.8932 -0.0000 0.4498
vn -0.8311 -0.0000 0.5561
vn -0.5877 -0.5877 0.5561
vn -0.6315 -0.6315 0.4498
vn 0.5877 0.5877 -0.5561
vn -0.0000 0.8311 -0.5561
vn 0.8311 -0.0000 -0.5561
vn 0.5877 -0.5877 -0.5561
vn -0.0000 -0.8311 -0.5561
vn -0.5877 -0.5877 -0.5561
vn -0.8311 -0.0000 -0.5561
vn -0.5877 0.5877 -0.5561
vn -0.6146 0.2277 -0.7553
vn -0.6146 0.2277 0.7553
vn -0.6258 -0.4555 -0.6332
vn -0.6258 -0.4555 0.6332
vn -0.6303 -0.2971 -0.7173
vn -0.6258 0.4555 0.6332
vn -0.6258 0.4555 -0.6332
vn -0.6303 -0.2971 0.7173
vn -0.8042 -0.2275 -0.5491
vn -0.8042 -0.2275 0.5491
vn -0.8042 0.2275 -0.5491
vn -0.8042 0.2275 0.5491
vn -0.7800 -0.0000 -0.6258
vn -0.7800 -0.0000 0.6258
vn -0.2971 -0.7173 -0.6303
vn -0.7173 -0.2971 -0.6303
vn 0.2971 -0.7173 -0.6303
vn -0.2971 -0.7173 0.6303
vn -0.7173 -0.2971 0.6303
vn 0.2971 -0.7173 0.6303
vn -0.7173 0.2971 -0.6303
vn -0.7173 0.2971 0.6303
vn -0.6385 0.4916 -0.5922
vn 0.1124 0.7697 -0.6285
vn -0.6385 0.4916 0.5922
vn 0.1124 0.7697 0.6285
vn 0.6385 0.4916 0.5922
vn -0.1124 0.7697 0.6285
vn 0.6385 0.4916 -0.5922
vn -0.1124 0.7697 -0.6285
vn -0.6277 0.5504 0.5505
vn -0.6277 0.5504 -0.5505
vn 0.5944 -0.0000 0.8042
vn 0.4203 0.4203 0.8042
vn -0.0000 0.5944 0.8042
vn 0.4203 -0.4203 0.8042
vn -0.0000 -0.5944 0.8042
vn -0.4203 -0.4203 0.8042
vn -0.5944 -0.0000 0.8042
vn -0.4203 0.4203 0.8042
vn 0.5933 -0.0016 0.8050
vn 0.7692 0.1616 0.6183
vn 0.5933 -0.0016 -0.8050
vn 0.7692 0.1616 -0.6183
vn -0.0000 -0.0000 1.0000
vn -0.0000 -0.0000 -1.0000
vn 0.5944 -0.0000 -0.8042
vn 0.4203 0.4203 -0.8042
vn -0.0000 0.7764 -0.6302
vn 0.5490 -0.5490 -0.6303
vn -0.0000 0.5944 -0.8042
vn 0.4203 -0.4203 -0.8042
vn -0.0000 -0.7764 -0.6302
vn -0.0000 -0.5944 -0.8042
vn -0.4203 0.4203 -0.8042
vn -0.5944 -0.0000 -0.8042
vn -0.4203 -0.4203 -0.8042
vn 0.5490 -0.5490 0.6303
vn -0.0000 -0.7764 0.6302
vn 0.5490 0.5490 0.6303
vn -0.0000 0.7764 0.6302
vn -0.6328 0.7743 -0.0000
vn 0.4688 0.8833 -0.0000
vn 0.8034 0.5939 0.0440
vn 0.8034 0.5938 -0.0440
vn -0.0000 -0.6302 0.7764
vn -0.5490 -0.6303 0.5490
vn -0.7764 -0.6303 -0.0000
vn -0.5490 -0.6303 -0.5490
vn -0.0000 -0.6302 -0.7764
vn 0.5490 -0.6303 -0.5490
vn 0.7764 -0.6302 -0.0000
vn 0.5490 -0.6303 0.5490
vn 0.8084 -0.5886 -0.0000
vn 0.8084 0.5886 -0.0000
vn -0.6303 -0.7764 -0.0000
vn -0.6303 -0.0000 0.7764
vn -0.6303 -0.0000 -0.7764
vn -0.6302 -0.5490 0.5490
vn -0.6302 -0.5490 -0.5490
vn -0.6302 0.7764 -0.0000
vn -0.6302 0.5490 -0.5490
vn -0.6303 0.5490 0.5490
vn 0.5490 0.5490 -0.6302
vn 0.7764 -0.0000 -0.6303
vn 0.7764 -0.0000 0.6303
vn 0.6302 -0.5490 0.5490
vn 0.6303 -0.0000 0.7764
vn 0.6303 -0.7764 -0.0000
vn 0.6302 -0.5490 -0.5490
vn 0.6303 -0.0000 -0.7764
vn 0.6303 0.5490 -0.5490
vn 0.6302 0.7764 -0.0000
vn 0.6303 0.5490 0.5490
vn -0.6917 -0.7222 -0.0000
vn -0.1102 -0.9939 -0.0000
vn 0.7422 -0.6702 -0.0000
vn 0.9520 0.3062 -0.0000
vn 0.3826 -0.9239 -0.0000
vn -0.3825 -0.9239 -0.0000
vn -0.9239 -0.3826 -0.0000
vn -0.9239 0.3827 -0.0000
vn -0.3827 0.9239 -0.0000
vn 0.3828 0.9238 -0.0000
vn 0.9239 0.3827 -0.0000
vn 0.9239 -0.3827 -0.0000
vn -0.6533 0.6533 -0.3827
vn -0.6533 0.6533 0.3827
vn -0.2706 0.2706 -0.9239
vn -0.2706 0.2706 0.9239
vn 0.2706 -0.2706 -0.9239
vn 0.2706 -0.2706 0.9239
vn 0.6533 -0.6533 -0.3827
vn 0.6533 -0.6533 0.3827
vn 0.7267 0.6869 -0.0000
vn 0.2487 0.9686 -0.0000
vn -0.7196 0.6944 -0.0000
vn -0.9185 -0.3955 -0.0000
vn 0.6917 -0.7222 -0.0000
vn 0.1102 -0.9939 -0.0000
vn -0.7422 -0.6702 -0.0000
vn -0.9520 0.3062 -0.0000
vn -0.3826 -0.9239 -0.0000
vn 0.9239 -0.3826 -0.0000
vn 0.9239 0.3826 -0.0000
vn 0.3827 0.9239 -0.0000
vn -0.9239 0.3826 -0.0000
vn -0.9239 -0.3827 -0.0000
vn 0.6533 0.6533 0.3827
vn 0.6533 0.6533 -0.3827
vn 0.2706 0.2706 0.9239
vn 0.2706 0.2706 -0.9239
vn -0.2706 -0.2706 0.9239
vn -0.2706 -0.2706 -0.9239
vn -0.6533 -0.6533 0.3827
vn -0.6533 -0.6533 -0.3827
vn -0.7267 0.6869 -0.0000
vn -0.2487 0.9686 -0.0000
vn 0.7196 0.6944 -0.0000
vn 0.9185 -0.3955 -0.0000
vt 0.375000 0.125000
vt 0.625000 0.206818
vt 0.625000 0.125000
vt 0.375000 0.206818
vt 0.625000 0.043182
vt 0.375000 0.043182
vt 0.625000 0.750000
vt 0.375000 0.750000
vt 0.375000 0.625000
vt 0.625000 0.625000
vt 0.375000 0.500000
vt 0.625000 0.500000
vt 0.539573 0.125000
vt 0.506194 0.250000
vt 0.506194 0.125000
vt 0.539573 0.250000
vt 0.506194 0.000000
vt 0.539573 0.000000
vt 0.606330 0.125000
vt 0.606330 0.000000
vt 0.606330 0.250000
vt 0.625000 0.060677
vt 0.625000 0.140169
vt 0.625000 0.219662
vt 0.472815 0.250000
vt 0.472815 0.125000
vt 0.472815 0.000000
vt 0.406058 0.250000
vt 0.406058 0.125000
vt 0.406058 0.000000
vt 0.375000 0.679468
vt 0.445532 0.750000
vt 0.375000 0.570532
vt 0.445532 0.500000
vt 0.168701 0.750000
vt 0.125000 0.625000
vt 0.168701 0.625000
vt 0.125000 0.750000
vt 0.168701 0.500000
vt 0.125000 0.500000
vt 0.212401 0.750000
vt 0.212401 0.625000
vt 0.212401 0.500000
vt 0.500000 0.750000
vt 0.500000 0.500000
vt 0.375000 0.187500
vt 0.625000 0.187500
vt 0.625000 0.250000
vt 0.375000 0.250000
vt 0.375000 0.000000
vt 0.625000 0.000000
vt 0.625000 0.062500
vt 0.375000 0.062500
vt 0.625000 1.000000
vt 0.125000 0.679468
vt 0.445532 1.000000
vt 0.125000 0.570532
vt 0.445532 0.250000
vt 0.400000 0.500000
vt 0.400000 0.750000
vt 0.125000 0.569916
vt 0.125000 0.680084
vt 0.125000 0.648265
vt 0.125000 0.601735
vt 0.387500 0.750000
vt 0.387500 0.500000
vt 0.500000 0.000000
vt 0.500000 0.250000
vt 0.417077 0.000000
vt 0.417077 0.250000
vt 0.181229 0.750000
vt 0.125000 0.703295
vt 0.181229 0.500000
vt 0.125000 0.546705
vt 0.375000 1.000000
vt 0.500000 1.000000
vt 0.250000 1.000000
vt 0.750000 1.000000
vt 0.875000 1.000000
vt 0.125000 1.000000
vt 0.000000 1.000000
vt 1.000000 1.000000
vt 1.000000 0.500000
vt 0.875000 0.500000
vt 0.750000 0.500000
vt 0.250000 0.500000
vt 0.000000 0.500000
vt 0.875000 0.750000
vt 0.653051 0.764026
vt 0.653051 0.485974
vt 0.506194 1.000000
vt 0.472815 1.000000
vt 0.375000 0.912599
vt 0.406058 1.000000
vt 0.606330 0.750000
vt 0.539573 1.000000
vt 0.606330 1.000000
vt 0.375000 0.337401
vt 0.606330 0.500000
vt 0.625000 0.937500
vt 0.625000 0.812500
vt 0.625000 0.312500
vt 0.625000 0.437500
vt 0.375000 0.680084
vt 0.375000 0.569916
vt 0.402778 0.914151
vt 0.597222 0.914151
vt 0.625000 0.943771
vt 0.597222 0.786991
vt 0.375000 0.943771
vt 0.402778 0.786991
vt 0.375000 0.306229
vt 0.402778 0.463009
vt 0.402778 0.335849
vt 0.597222 0.463009
vt 0.625000 0.306229
vt 0.597222 0.335849
vt 0.400000 1.000000
vt 0.400000 0.250000
vt 0.352077 0.761462
vt 0.417077 0.750000
vt 0.375000 0.965615
vt 0.417077 1.000000
vt 0.352077 0.488538
vt 0.417077 0.500000
vt 0.375000 0.284385
vt 0.582923 0.750000
vt 0.582923 0.500000
vt 0.387500 0.250000
vt 0.387500 1.000000
vt 0.390529 0.956299
vt 0.390529 0.293701
vt 0.625000 0.875000
vt 0.625000 0.375000
vt 0.387500 0.000000
vt 0.400000 0.000000
vt 0.159385 0.500000
vt 0.159385 0.750000
vt 0.625000 0.540451
vt 0.625000 0.709549
vt 0.375000 0.687500
vt 0.625000 0.687500
vt 0.875000 0.687500
vt 0.750000 0.687500
vt 0.875000 0.562500
vt 0.625000 0.562500
vt 0.750000 0.562500
vt 0.375000 0.562500
vt 0.375000 0.601735
vt 0.375000 0.648265
vt 0.875000 0.625000
vt 0.875000 0.560677
vt 0.875000 0.689323
vt 0.818771 0.750000
vt 0.875000 0.703295
vt 0.818771 0.500000
vt 0.875000 0.546705
vt 0.750000 0.750000
vt 0.375000 0.046705
vt 0.625000 0.046705
vt 0.625000 0.203295
vt 0.375000 0.203295
vt 0.375000 0.706818
vt 0.625000 0.706818
vt 0.375000 0.543182
vt 0.625000 0.543182
vt 0.125000 0.543182
vt 0.125000 0.706818
vt 0.875000 0.706818
vt 0.875000 0.543182
vt 0.080294 0.419706
vt 0.490000 0.250000
vt 0.419706 0.419706
vt 0.250000 0.490000
vt 0.080294 0.080294
vt 0.010000 0.250000
vt 0.419706 0.080294
vt 0.250000 0.010000
vt 0.580294 0.080294
vt 0.990000 0.250000
vt 0.919706 0.080294
vt 0.750000 0.010000
vt 0.580294 0.419706
vt 0.510000 0.250000
vt 0.919706 0.419706
vt 0.750000 0.490000
vt 0.000000 0.000000
s 1
f 1/1/1 134/2/2 2/3/3
f 134/2/2 1/1/1 3/4/4
f 129/5/5 1/1/1 2/3/3
f 129/5/5 4/6/6 1/1/1
f 5/7/7 132/8/8 6/9/9
f 5/7/7 6/9/9 312/10/10
f 312/10/10 6/9/9 58/11/11
f 312/10/10 58/11/11 313/12/12
f 7/13/13 13/14/14 8/15/15
f 13/14/14 7/13/13 10/16/16
f 14/17/17 7/13/13 8/15/15
f 9/18/18 7/13/13 14/17/17
f 9/18/18 12/19/19 7/13/13
f 12/19/19 9/18/18 11/20/20
f 12/19/19 10/16/16 7/13/13
f 10/16/16 12/19/19 117/21/21
f 310/22/22 12/19/19 11/20/20
f 12/19/19 310/22/22 37/23/23
f 36/24/24 12/19/19 37/23/23
f 12/19/19 36/24/24 117/21/21
f 8/15/15 114/25/25 15/26/26
f 114/25/25 8/15/15 13/14/14
f 16/27/27 8/15/15 15/26/26
f 14/17/17 8/15/15 16/27/27
f 15/26/26 116/28/28 21/29/29
f 116/28/28 15/26/26 114/25/25
f 200/30/30 15/26/26 21/29/29
f 16/27/27 15/26/26 200/30/30
f 17/12/31 180/7/32 18/31/33
f 18/31/33 180/7/32 179/32/34
f 19/33/35 17/12/31 18/31/33
f 17/12/31 19/33/35 20/34/36
f 201/35/37 21/36/29 22/37/38
f 21/36/29 201/35/37 200/38/30
f 21/36/29 23/39/39 22/37/38
f 23/39/39 21/36/29 116/40/28
f 22/37/38 111/41/40 201/35/37
f 111/41/40 22/37/38 24/42/41
f 392/8/42 111/41/40 24/42/41
f 392/8/42 24/42/41 391/9/43
f 22/37/38 115/43/44 24/42/41
f 391/9/43 24/42/41 115/43/44
f 115/43/44 22/37/38 23/39/39
f 391/9/43 115/43/44 113/11/45
f 25/44/46 26/9/47 27/10/48
f 26/9/47 25/44/46 28/8/49
f 27/10/48 260/7/50 25/44/46
f 26/9/47 29/45/51 27/10/48
f 29/45/51 257/12/52 27/10/48
f 29/45/51 26/9/47 259/11/53
f 253/44/46 30/9/47 31/10/48
f 30/9/47 253/44/46 254/8/49
f 31/10/48 32/7/50 253/44/46
f 30/9/47 33/45/51 31/10/48
f 33/45/51 34/12/52 31/10/48
f 33/45/51 30/9/47 49/11/53
f 244/46/54 381/47/55 382/48/56
f 244/46/54 382/48/56 204/49/57
f 35/50/54 203/51/55 242/52/56
f 35/50/54 242/52/56 240/53/57
f 309/23/58 36/24/24 37/23/23
f 37/23/23 310/22/22 309/23/58
f 208/48/59 210/49/60 248/46/61
f 208/48/59 248/46/61 38/47/62
f 39/52/59 40/53/60 41/50/61
f 39/52/59 41/50/61 207/51/62
f 42/54/63 43/55/64 294/56/65
f 43/55/64 42/54/63 44/48/66
f 43/55/64 44/48/66 293/57/67
f 44/48/66 292/58/68 293/57/67
f 45/7/69 63/59/70 62/60/71
f 63/59/70 45/7/69 125/12/72
f 95/12/73 45/7/69 123/7/74
f 125/12/72 45/7/69 95/12/73
f 55/8/75 183/11/76 195/8/77
f 195/8/77 183/11/76 170/11/78
f 193/8/79 170/11/78 198/11/80
f 195/8/77 170/11/78 193/8/79
f 193/8/79 198/11/80 47/8/81
f 47/8/81 198/11/80 46/11/82
f 150/8/83 46/11/82 152/11/84
f 46/11/82 150/8/83 47/8/81
f 150/8/83 152/11/84 48/8/85
f 48/8/85 152/11/84 151/11/86
f 254/8/49 255/38/87 383/36/88
f 254/8/49 383/36/88 30/9/47
f 30/9/47 383/36/88 252/40/89
f 30/9/47 252/40/89 49/11/53
f 28/8/49 50/38/87 387/36/88
f 28/8/49 387/36/88 26/9/47
f 26/9/47 387/36/88 51/40/89
f 26/9/47 51/40/89 259/11/53
f 52/61/90 53/62/91 124/63/92
f 52/61/90 124/63/92 54/64/93
f 183/11/76 55/8/75 224/65/94
f 183/11/76 224/65/94 226/66/95
f 98/48/96 176/67/97 96/51/98
f 176/67/97 98/48/96 178/68/99
f 176/67/97 178/68/99 56/69/100
f 56/69/100 178/68/99 174/70/101
f 394/36/102 130/71/103 57/72/104
f 130/71/103 394/36/102 132/8/8
f 132/8/8 394/36/102 6/9/9
f 394/36/102 58/11/11 6/9/9
f 58/11/11 394/36/102 59/73/105
f 59/73/105 394/36/102 397/74/106
f 60/54/107 344/75/108 343/76/109
f 60/54/107 345/77/110 344/75/108
f 341/78/111 345/77/110 60/54/107
f 345/77/110 341/78/111 340/79/112
f 345/77/110 340/79/112 61/80/113
f 61/80/113 340/79/112 346/81/114
f 62/60/71 226/66/95 224/65/94
f 62/60/71 63/59/70 226/66/95
f 83/80/115 64/81/116 65/81/117
f 65/81/117 66/80/118 83/80/115
f 66/80/118 84/77/119 83/80/115
f 84/77/119 66/80/118 272/77/120
f 272/77/120 67/75/121 84/77/119
f 272/77/120 269/75/122 67/75/121
f 68/76/123 67/75/121 269/75/122
f 67/75/121 68/76/123 69/76/124
f 70/54/125 69/76/124 68/76/123
f 69/76/124 70/54/125 87/54/126
f 266/78/127 87/54/126 70/54/125
f 87/54/126 266/78/127 89/78/128
f 266/78/127 91/79/129 89/78/128
f 266/78/127 264/79/130 91/79/129
f 264/79/130 64/82/116 91/79/129
f 64/82/116 264/79/130 65/82/117
f 71/79/131 72/83/132 148/82/133
f 72/83/132 71/79/131 73/84/134
f 74/78/135 73/84/134 71/79/131
f 73/84/134 74/78/135 75/85/48
f 76/54/136 75/85/48 74/78/135
f 75/85/48 76/54/136 77/12/137
f 145/76/138 77/12/137 76/54/136
f 77/12/137 145/76/138 78/45/139
f 143/75/140 78/45/139 145/76/138
f 78/45/139 143/75/140 79/11/141
f 142/77/142 79/11/141 143/75/140
f 79/11/141 142/77/142 80/86/143
f 81/80/144 80/86/143 142/77/142
f 80/86/143 81/80/144 82/40/145
f 148/81/133 82/40/145 81/80/144
f 82/40/145 148/81/133 72/87/132
f 348/77/146 83/80/115 84/77/119
f 83/80/115 348/77/146 352/80/147
f 352/80/147 64/81/116 83/80/115
f 64/81/116 352/80/147 92/81/148
f 84/77/119 85/75/149 348/77/146
f 85/75/149 84/77/119 67/75/121
f 351/76/150 85/75/149 67/75/121
f 351/76/150 67/75/121 69/76/124
f 86/54/151 351/76/150 69/76/124
f 86/54/151 69/76/124 87/54/126
f 86/54/151 87/54/126 88/78/152
f 87/54/126 89/78/128 88/78/152
f 88/78/152 89/78/128 90/79/153
f 89/78/128 91/79/129 90/79/153
f 91/79/129 92/82/148 90/79/153
f 64/82/116 92/82/148 91/79/129
f 155/7/154 119/84/73 211/88/74
f 119/84/73 155/7/154 93/12/155
f 94/88/154 95/12/73 123/7/74
f 95/12/73 94/88/154 367/84/156
f 96/88/98 175/89/157 97/90/158
f 96/88/98 97/90/158 98/84/96
f 99/80/159 327/78/160 100/79/161
f 99/80/159 100/79/161 335/81/162
f 327/78/160 99/80/159 101/77/163
f 331/75/164 327/78/160 101/77/163
f 327/78/160 331/75/164 102/54/165
f 102/54/165 331/75/164 103/76/166
f 104/80/167 105/78/168 106/79/169
f 104/80/167 106/79/169 339/81/170
f 105/78/168 104/80/167 107/77/171
f 108/75/172 105/78/168 107/77/171
f 105/78/168 108/75/172 337/54/173
f 337/54/173 108/75/172 109/76/174
f 149/8/175 216/38/85 110/40/86
f 149/8/175 110/40/86 163/11/176
f 48/8/85 371/40/176 373/38/175
f 371/40/176 48/8/85 151/11/86
f 392/8/42 14/91/17 16/92/27
f 16/92/27 111/93/40 392/8/42
f 111/93/40 16/92/27 200/94/30
f 14/91/17 392/8/42 112/95/177
f 112/95/177 9/96/18 14/91/17
f 112/95/177 11/97/20 9/96/18
f 113/11/45 114/25/25 13/14/14
f 114/25/25 113/11/45 115/98/44
f 115/98/44 116/28/28 114/25/25
f 113/11/45 13/14/14 221/99/178
f 221/99/178 13/14/14 10/16/16
f 10/16/16 117/21/21 221/99/178
f 156/100/179 155/7/154 211/54/74
f 155/7/154 156/100/179 261/101/92
f 118/102/180 93/12/155 126/103/93
f 119/48/73 93/12/155 118/102/180
f 154/7/181 157/100/182 153/54/69
f 157/100/182 154/7/181 120/101/183
f 236/102/184 121/12/185 164/48/72
f 121/12/185 236/102/184 122/103/186
f 94/54/154 123/7/74 314/101/179
f 94/54/154 314/101/179 124/100/92
f 169/54/181 94/54/154 124/100/92
f 53/100/91 169/54/181 124/100/92
f 314/101/179 45/7/69 128/101/187
f 45/7/69 314/101/179 123/7/74
f 53/100/91 45/7/69 169/54/181
f 45/7/69 53/100/91 128/101/187
f 54/102/93 95/12/73 367/48/156
f 95/12/73 54/102/93 374/103/180
f 374/103/180 125/12/72 95/12/73
f 125/12/72 374/103/180 127/103/188
f 366/48/185 54/102/93 367/48/156
f 54/102/93 366/48/185 52/102/90
f 127/103/188 366/48/185 125/12/72
f 366/48/185 127/103/188 52/102/90
f 126/103/93 93/12/155 121/12/185
f 126/103/93 121/12/185 122/103/186
f 120/104/183 122/105/186 157/62/182
f 157/62/182 122/105/186 236/61/184
f 53/62/91 127/105/188 128/104/187
f 127/105/188 53/62/91 52/61/90
f 4/106/6 129/107/5 311/108/189
f 399/109/190 311/108/189 129/107/5
f 311/108/189 130/110/103 4/106/6
f 311/108/189 399/109/190 5/7/7
f 130/110/103 131/111/191 4/106/6
f 131/111/191 5/7/7 399/109/190
f 131/111/191 130/110/103 132/8/8
f 5/7/7 131/111/191 132/8/8
f 59/112/105 403/113/192 58/11/11
f 313/12/12 58/11/11 403/113/192
f 403/113/192 59/112/105 3/114/4
f 313/12/12 403/113/192 402/115/193
f 133/116/194 3/114/4 59/112/105
f 402/115/193 133/116/194 313/12/12
f 3/114/4 133/116/194 134/117/2
f 133/116/194 402/115/193 134/117/2
f 135/80/195 286/81/196 285/80/197
f 286/81/196 135/80/195 139/81/198
f 282/77/199 135/80/195 285/80/197
f 135/80/195 282/77/199 317/77/200
f 280/75/201 317/77/200 282/77/199
f 317/77/200 280/75/201 320/75/202
f 278/76/203 320/75/202 280/75/201
f 320/75/202 278/76/203 321/76/204
f 136/54/205 321/76/204 278/76/203
f 321/76/204 136/54/205 322/54/206
f 275/78/207 322/54/206 136/54/205
f 322/54/206 275/78/207 323/78/208
f 275/78/207 137/79/209 323/78/208
f 275/78/207 138/79/210 137/79/209
f 139/82/198 137/79/209 138/79/210
f 138/79/210 286/82/196 139/82/198
f 140/80/211 148/81/133 81/80/144
f 148/81/133 140/80/211 141/81/212
f 142/77/142 140/80/211 81/80/144
f 140/80/211 142/77/142 229/77/213
f 143/75/140 229/77/213 142/77/142
f 229/77/213 143/75/140 144/75/214
f 145/76/138 144/75/214 143/75/140
f 144/75/214 145/76/138 231/76/215
f 76/54/136 231/76/215 145/76/138
f 231/76/215 76/54/136 146/54/216
f 74/78/135 146/54/216 76/54/136
f 146/54/216 74/78/135 234/78/217
f 74/78/135 147/79/218 234/78/217
f 74/78/135 71/79/131 147/79/218
f 141/82/212 147/79/218 71/79/131
f 71/79/131 148/82/133 141/82/212
f 216/75/85 162/8/219 185/75/83
f 162/8/219 216/75/85 149/8/175
f 163/11/176 110/49/86 188/49/84
f 163/11/176 188/49/84 161/11/220
f 48/8/85 373/75/175 150/8/83
f 372/75/219 150/8/83 373/75/175
f 151/11/86 196/49/220 371/49/176
f 196/49/220 151/11/86 152/11/84
f 218/60/221 223/59/222 154/7/181
f 154/7/181 223/59/222 121/12/185
f 154/7/181 93/12/155 155/7/154
f 154/7/181 121/12/185 93/12/155
f 153/54/69 218/60/221 154/7/181
f 218/60/221 153/54/69 222/118/71
f 261/101/92 154/7/181 155/7/154
f 154/7/181 261/101/92 120/101/183
f 211/54/74 153/54/69 156/100/179
f 156/100/179 153/54/69 157/100/182
f 167/8/223 158/11/224 165/8/225
f 158/11/224 167/8/223 191/11/226
f 191/11/226 159/8/227 190/11/228
f 191/11/226 167/8/223 159/8/227
f 186/8/229 190/11/228 159/8/227
f 190/11/228 186/8/229 160/11/230
f 162/8/219 160/11/230 186/8/229
f 162/8/219 161/11/220 160/11/230
f 149/8/175 161/11/220 162/8/219
f 161/11/220 149/8/175 163/11/176
f 223/59/222 237/119/70 121/12/185
f 237/119/70 164/48/72 121/12/185
f 164/48/72 118/102/180 236/102/184
f 118/102/180 164/48/72 119/48/73
f 212/75/77 165/8/225 166/75/75
f 165/8/225 212/75/77 167/8/223
f 191/11/226 213/49/78 181/49/76
f 191/11/226 181/49/76 158/11/224
f 165/8/225 158/11/224 219/65/231
f 219/65/231 158/11/224 182/66/232
f 63/59/70 125/12/72 168/119/222
f 168/119/222 125/12/72 366/48/185
f 169/54/181 45/7/69 62/60/71
f 169/54/181 62/60/71 365/118/221
f 195/8/77 368/75/223 55/8/75
f 184/75/225 55/8/75 368/75/223
f 170/11/78 369/49/224 199/49/226
f 369/49/224 170/11/78 183/11/76
f 176/76/97 171/120/233 290/44/60
f 290/44/60 171/120/233 288/121/234
f 171/120/233 176/76/97 220/122/235
f 220/122/235 176/76/97 56/123/100
f 289/124/236 178/68/99 177/45/61
f 289/124/236 177/45/61 172/125/237
f 173/126/238 178/68/99 289/124/236
f 178/68/99 173/126/238 174/70/101
f 175/89/157 290/44/60 217/127/239
f 96/54/98 290/44/60 175/89/157
f 290/44/60 96/54/98 176/76/97
f 98/48/96 177/45/61 178/68/99
f 177/45/61 98/48/96 97/90/158
f 177/45/61 97/90/158 291/128/240
f 42/54/63 179/32/34 180/7/32
f 179/32/34 42/54/63 294/56/65
f 44/48/66 17/12/31 292/58/68
f 20/34/36 292/58/68 17/12/31
f 181/49/76 182/66/232 158/11/224
f 182/66/232 181/49/76 206/129/95
f 219/65/231 166/75/75 165/8/225
f 166/75/75 219/65/231 238/130/94
f 369/49/224 183/11/76 226/66/95
f 369/49/224 226/66/95 225/129/232
f 55/8/75 184/75/225 315/130/231
f 55/8/75 315/130/231 224/65/94
f 185/75/83 162/8/219 186/8/229
f 185/75/83 186/8/229 187/75/81
f 159/8/227 187/75/81 186/8/229
f 187/75/81 159/8/227 214/75/79
f 167/8/223 214/75/79 159/8/227
f 214/75/79 167/8/223 212/75/77
f 215/49/82 160/11/230 161/11/220
f 215/49/82 161/11/220 188/49/84
f 160/11/230 215/49/82 189/49/80
f 160/11/230 189/49/80 190/11/228
f 190/11/228 189/49/80 213/49/78
f 190/11/228 213/49/78 191/11/226
f 372/75/219 47/8/81 150/8/83
f 47/8/81 372/75/219 192/75/229
f 47/8/81 192/75/229 193/8/79
f 194/75/227 193/8/79 192/75/229
f 193/8/79 194/75/227 195/8/77
f 368/75/223 195/8/77 194/75/227
f 196/49/220 152/11/84 370/49/230
f 46/11/82 370/49/230 152/11/84
f 46/11/82 197/49/228 370/49/230
f 197/49/228 46/11/82 198/11/80
f 198/11/80 199/49/226 197/49/228
f 199/49/226 198/11/80 170/11/78
f 111/93/40 200/94/30 201/131/37
f 116/28/28 115/98/44 23/132/39
f 375/7/241 35/75/54 202/8/60
f 35/75/54 375/7/241 203/54/55
f 203/54/55 375/7/241 376/133/242
f 379/11/61 204/49/57 205/12/243
f 382/48/56 205/12/243 204/49/57
f 205/12/243 382/48/56 380/134/244
f 206/129/95 166/50/75 238/135/94
f 181/49/76 166/50/75 206/129/95
f 207/54/62 359/7/245 361/133/246
f 41/75/61 359/7/245 207/54/62
f 359/7/245 41/75/61 360/8/57
f 208/48/59 209/12/247 210/49/60
f 210/49/60 209/12/247 364/11/54
f 209/12/247 208/48/59 363/134/248
f 164/48/72 222/136/71 153/51/69
f 222/136/71 164/48/72 237/119/70
f 164/48/72 211/51/74 119/48/73
f 164/48/72 153/51/69 211/51/74
f 213/49/78 212/50/77 166/50/75
f 166/50/75 181/49/76 213/49/78
f 212/50/77 189/49/80 214/50/79
f 212/50/77 213/49/78 189/49/80
f 214/50/79 189/49/80 215/49/82
f 215/49/82 187/50/81 214/50/79
f 188/49/84 185/50/83 187/50/81
f 188/49/84 187/50/81 215/49/82
f 110/49/86 216/50/85 185/50/83
f 185/50/83 188/49/84 110/49/86
f 217/127/239 97/90/158 175/89/157
f 97/90/158 217/127/239 291/128/240
f 223/59/222 218/60/221 182/66/232
f 182/66/232 218/60/221 219/65/231
f 56/38/100 173/137/238 220/138/235
f 173/137/238 56/38/100 174/40/101
f 171/120/233 173/137/238 289/124/236
f 171/120/233 220/138/235 173/137/238
f 221/99/178 117/21/21 36/24/24
f 221/99/178 36/24/24 308/139/249
f 310/54/22 112/95/177 393/140/250
f 112/95/177 310/54/22 11/97/20
f 218/60/221 222/118/71 219/65/231
f 219/65/231 222/118/71 238/130/94
f 237/119/70 182/66/232 206/129/95
f 182/66/232 237/119/70 223/59/222
f 365/118/221 62/60/71 224/65/94
f 365/118/221 224/65/94 315/130/231
f 63/59/70 225/129/232 226/66/95
f 225/129/232 63/59/70 168/119/222
f 227/77/251 228/80/252 140/80/211
f 228/80/252 141/81/212 140/80/211
f 228/80/252 306/81/253 141/81/212
f 227/77/251 140/80/211 229/77/213
f 230/75/254 227/77/251 229/77/213
f 230/75/254 229/77/213 144/75/214
f 302/76/255 230/75/254 144/75/214
f 302/76/255 144/75/214 231/76/215
f 232/54/256 302/76/255 231/76/215
f 232/54/256 231/76/215 146/54/216
f 233/78/257 232/54/256 146/54/216
f 233/78/257 146/54/216 234/78/217
f 235/79/258 233/78/257 234/78/217
f 235/79/258 234/78/217 147/79/218
f 306/82/253 235/79/258 147/79/218
f 306/82/253 147/79/218 141/82/212
f 157/62/182 236/61/184 156/63/179
f 156/63/179 236/61/184 118/64/180
f 222/136/71 237/119/70 238/135/94
f 238/135/94 237/119/70 206/129/95
f 239/141/61 240/53/57 241/142/243
f 242/143/56 241/142/243 240/53/57
f 241/142/243 242/143/56 377/144/244
f 381/145/55 378/146/241 243/147/242
f 378/146/241 381/145/55 244/46/54
f 378/146/241 244/46/54 245/148/60
f 39/143/59 358/142/247 40/53/60
f 40/53/60 358/142/247 357/141/54
f 358/142/247 39/143/59 246/144/248
f 247/146/245 248/46/61 249/148/57
f 247/146/245 38/145/62 248/46/61
f 38/145/62 247/146/245 362/147/246
f 250/48/259 34/12/52 251/68/260
f 33/45/51 251/68/260 34/12/52
f 252/49/89 251/68/260 33/45/51
f 49/11/53 252/49/89 33/45/51
f 386/54/261 253/44/46 32/7/50
f 253/44/46 386/54/261 385/76/262
f 385/76/262 254/8/49 253/44/46
f 254/8/49 385/76/262 255/75/87
f 256/48/259 257/12/52 258/68/260
f 29/45/51 258/68/260 257/12/52
f 51/49/89 258/68/260 29/45/51
f 259/11/53 51/49/89 29/45/51
f 390/54/261 25/44/46 260/7/50
f 25/44/46 390/54/261 389/76/262
f 389/76/262 28/8/49 25/44/46
f 28/8/49 389/76/262 50/75/87
f 122/105/186 120/104/183 126/149/93
f 126/149/93 120/104/183 261/150/92
f 262/84/61 263/83/263 264/79/130
f 263/83/263 65/82/117 264/79/130
f 264/79/130 265/85/48 262/84/61
f 265/85/48 264/79/130 266/78/127
f 266/78/127 267/12/60 265/85/48
f 267/12/60 266/78/127 70/54/125
f 68/76/123 267/12/60 70/54/125
f 267/12/60 68/76/123 268/45/264
f 269/75/122 268/45/264 68/76/123
f 268/45/264 269/75/122 270/11/54
f 269/75/122 271/86/143 270/11/54
f 271/86/143 269/75/122 272/77/120
f 272/77/120 66/80/118 271/86/143
f 271/86/143 66/80/118 273/40/57
f 273/40/57 66/80/118 65/81/117
f 263/87/263 273/40/57 65/81/117
f 274/84/137 287/83/139 138/79/210
f 287/83/139 286/82/196 138/79/210
f 274/84/137 138/79/210 275/78/207
f 276/85/48 274/84/137 275/78/207
f 275/78/207 277/12/134 276/85/48
f 277/12/134 275/78/207 136/54/205
f 277/12/134 136/54/205 278/76/203
f 279/45/132 277/12/134 278/76/203
f 279/45/132 278/76/203 280/75/201
f 281/11/145 279/45/132 280/75/201
f 281/11/145 280/75/201 282/77/199
f 283/86/143 281/11/145 282/77/199
f 282/77/199 284/40/141 283/86/143
f 284/40/141 282/77/199 285/80/197
f 284/40/141 285/80/197 286/81/196
f 287/87/139 284/40/141 286/81/196
f 172/125/237 288/121/234 171/120/233
f 171/120/233 289/124/236 172/125/237
f 288/121/234 172/125/237 290/44/60
f 290/44/60 172/125/237 177/45/61
f 290/44/60 177/45/61 217/127/239
f 217/127/239 177/45/61 291/128/240
f 292/40/68 20/11/36 19/33/35
f 292/40/68 19/33/35 293/57/67
f 293/57/67 19/33/35 18/31/33
f 293/57/67 18/31/33 43/55/64
f 43/55/64 18/31/33 179/8/34
f 43/55/64 179/8/34 294/38/65
f 330/75/167 316/77/265 295/75/266
f 316/77/265 330/75/167 332/77/171
f 329/76/267 330/75/167 295/75/266
f 333/80/268 316/77/265 332/77/171
f 329/76/267 295/75/266 296/76/269
f 316/77/265 333/80/268 318/80/270
f 334/81/271 318/80/270 333/80/268
f 318/80/270 334/81/271 319/81/272
f 328/54/169 329/76/267 296/76/269
f 328/54/169 296/76/269 297/54/273
f 297/54/273 326/78/168 328/54/169
f 297/54/273 298/78/274 326/78/168
f 324/79/275 326/78/168 298/78/274
f 326/78/168 324/79/275 325/79/173
f 319/82/272 325/79/173 324/79/275
f 325/79/173 319/82/272 334/82/271
f 299/75/276 227/77/251 230/75/254
f 227/77/251 299/75/276 300/77/163
f 301/76/277 299/75/276 230/75/254
f 338/80/278 227/77/251 300/77/163
f 301/76/277 230/75/254 302/76/255
f 227/77/251 338/80/278 228/80/252
f 303/81/279 228/80/252 338/80/278
f 228/80/252 303/81/279 306/81/253
f 304/54/161 301/76/277 302/76/255
f 304/54/161 302/76/255 232/54/256
f 232/54/256 336/78/160 304/54/161
f 232/54/256 233/78/257 336/78/160
f 235/79/258 336/78/160 233/78/257
f 336/78/160 235/79/258 305/79/165
f 306/82/253 305/79/165 235/79/258
f 305/79/165 306/82/253 303/82/279
f 309/151/58 307/10/280 308/139/249
f 308/139/249 36/152/24 309/151/58
f 309/151/58 393/140/250 307/10/280
f 393/140/250 309/151/58 310/153/22
f 5/7/7 395/151/281 311/154/189
f 395/151/281 396/155/282 311/154/189
f 395/151/281 5/7/7 312/10/10
f 313/12/12 395/151/281 312/10/10
f 395/151/281 313/12/12 133/156/194
f 398/157/283 395/151/281 133/156/194
f 261/150/92 156/63/179 118/64/180
f 261/150/92 118/64/180 126/149/93
f 314/150/179 54/64/93 124/63/92
f 54/64/93 314/150/179 374/149/180
f 184/50/225 369/49/224 225/129/232
f 184/50/225 225/129/232 315/135/231
f 316/77/265 135/80/195 317/77/200
f 135/80/195 316/77/265 318/80/270
f 318/80/270 139/81/198 135/80/195
f 139/81/198 318/80/270 319/81/272
f 317/77/200 295/75/266 316/77/265
f 295/75/266 317/77/200 320/75/202
f 320/75/202 296/76/269 295/75/266
f 321/76/204 296/76/269 320/75/202
f 321/76/204 297/54/273 296/76/269
f 322/54/206 297/54/273 321/76/204
f 322/54/206 298/78/274 297/54/273
f 298/78/274 322/54/206 323/78/208
f 323/78/208 324/79/275 298/78/274
f 137/79/209 324/79/275 323/78/208
f 137/79/209 319/82/272 324/79/275
f 139/82/198 319/82/272 137/79/209
f 335/82/162 325/79/173 334/82/271
f 325/79/173 335/82/162 100/79/161
f 100/79/161 326/78/168 325/79/173
f 326/78/168 100/79/161 327/78/160
f 326/78/168 327/78/160 328/54/169
f 328/54/169 327/78/160 102/54/165
f 328/54/169 102/54/165 329/76/267
f 329/76/267 102/54/165 103/76/166
f 329/76/267 103/76/166 330/75/167
f 330/75/167 103/76/166 331/75/164
f 331/75/164 332/77/171 330/75/167
f 332/77/171 331/75/164 101/77/163
f 332/77/171 101/77/163 333/80/268
f 333/80/268 101/77/163 99/80/159
f 333/80/268 99/80/159 334/81/271
f 334/81/271 99/80/159 335/81/162
f 339/82/170 106/79/169 305/79/165
f 339/82/170 305/79/165 303/82/279
f 106/79/169 336/78/160 305/79/165
f 106/79/169 105/78/168 336/78/160
f 105/78/168 304/54/161 336/78/160
f 105/78/168 337/54/173 304/54/161
f 337/54/173 301/76/277 304/54/161
f 337/54/173 109/76/174 301/76/277
f 109/76/174 299/75/276 301/76/277
f 109/76/174 108/75/172 299/75/276
f 108/75/172 300/77/163 299/75/276
f 108/75/172 107/77/171 300/77/163
f 107/77/171 338/80/278 300/77/163
f 107/77/171 104/80/167 338/80/278
f 104/80/167 303/81/279 338/80/278
f 104/80/167 339/81/170 303/81/279
f 353/82/284 346/82/114 356/79/285
f 356/79/285 346/82/114 340/79/112
f 355/78/286 356/79/285 340/79/112
f 341/78/111 355/78/286 340/79/112
f 354/54/287 355/78/286 341/78/111
f 60/54/107 354/54/287 341/78/111
f 60/54/107 342/76/288 354/54/287
f 60/54/107 343/76/109 342/76/288
f 343/76/109 347/75/289 342/76/288
f 343/76/109 344/75/108 347/75/289
f 344/75/108 349/77/290 347/75/289
f 349/77/290 344/75/108 345/77/110
f 345/77/110 350/80/291 349/77/290
f 350/80/291 345/77/110 61/80/113
f 61/80/113 353/81/284 350/80/291
f 353/81/284 61/80/113 346/81/114
f 168/119/222 365/136/221 315/135/231
f 168/119/222 315/135/231 225/129/232
f 347/75/289 348/77/146 85/75/149
f 348/77/146 347/75/289 349/77/290
f 342/76/288 347/75/289 85/75/149
f 350/80/291 348/77/146 349/77/290
f 342/76/288 85/75/149 351/76/150
f 348/77/146 350/80/291 352/80/147
f 353/81/284 352/80/147 350/80/291
f 352/80/147 353/81/284 92/81/148
f 354/54/287 342/76/288 351/76/150
f 354/54/287 351/76/150 86/54/151
f 86/54/151 355/78/286 354/54/287
f 86/54/151 88/78/152 355/78/286
f 90/79/153 355/78/286 88/78/152
f 355/78/286 90/79/153 356/79/285
f 92/82/148 356/79/285 90/79/153
f 356/79/285 92/82/148 353/82/284
f 357/141/54 358/142/247 359/7/245
f 357/141/54 359/7/245 360/8/57
f 358/142/247 361/158/246 359/7/245
f 361/158/246 358/142/247 246/144/248
f 246/144/248 207/88/62 361/158/246
f 207/88/62 246/144/248 39/143/59
f 362/147/246 209/12/247 363/85/248
f 363/85/248 38/145/62 362/147/246
f 208/84/59 38/145/62 363/85/248
f 209/12/247 362/147/246 247/146/245
f 247/146/245 364/11/54 209/12/247
f 364/11/54 247/146/245 249/148/57
f 366/48/185 169/51/181 365/136/221
f 365/136/221 168/119/222 366/48/185
f 169/51/181 366/48/185 94/51/154
f 94/51/154 366/48/185 367/48/156
f 199/49/226 184/50/225 368/50/223
f 184/50/225 199/49/226 369/49/224
f 199/49/226 368/50/223 197/49/228
f 197/49/228 368/50/223 194/50/227
f 194/50/227 370/49/230 197/49/228
f 370/49/230 194/50/227 192/50/229
f 372/50/219 196/49/220 192/50/229
f 192/50/229 196/49/220 370/49/230
f 371/49/176 372/50/219 373/50/175
f 372/50/219 371/49/176 196/49/220
f 128/104/187 374/149/180 314/150/179
f 128/104/187 127/105/188 374/149/180
f 375/7/241 202/8/60 239/141/61
f 375/7/241 239/141/61 241/142/243
f 376/158/242 375/7/241 241/142/243
f 376/158/242 241/142/243 377/144/244
f 203/88/55 376/158/242 377/144/244
f 203/88/55 377/144/244 242/143/56
f 243/147/242 378/146/241 205/12/243
f 378/146/241 379/11/61 205/12/243
f 378/146/241 245/148/60 379/11/61
f 243/147/242 205/12/243 380/85/244
f 381/145/55 243/147/242 380/85/244
f 381/145/55 380/85/244 382/84/56
f 383/1/88 251/68/260 252/49/89
f 251/68/260 383/1/88 384/3/143
f 251/68/260 384/3/143 250/48/259
f 383/1/88 385/67/262 384/3/143
f 385/67/262 386/51/261 384/3/143
f 385/67/262 383/1/88 255/50/87
f 387/1/88 258/68/260 51/49/89
f 258/68/260 387/1/88 388/3/143
f 258/68/260 388/3/143 256/48/259
f 387/1/88 389/67/262 388/3/143
f 389/67/262 390/51/261 388/3/143
f 389/67/262 387/1/88 50/50/87
f 391/9/43 221/99/178 112/95/177
f 221/99/178 391/9/43 113/11/45
f 391/9/43 112/95/177 392/8/42
f 221/99/178 307/10/280 112/95/177
f 112/95/177 307/10/280 393/140/250
f 307/10/280 221/99/178 308/139/249
f 57/159/104 396/160/282 395/3/281
f 57/159/104 395/3/281 394/1/102
f 394/1/102 395/3/281 398/161/283
f 394/1/102 398/161/283 397/162/106
f 396/160/282 130/50/103 311/51/189
f 130/50/103 396/160/282 57/159/104
f 397/162/106 398/161/283 133/116/194
f 397/162/106 133/116/194 59/112/105
f 131/163/191 399/164/190 400/10/292
f 131/163/191 400/10/292 401/9/293
f 400/10/292 403/165/192 401/9/293
f 403/165/192 400/10/292 402/166/193
f 401/9/293 403/165/192 1/36/1
f 1/36/1 403/165/192 3/167/4
f 1/36/1 131/163/191 401/9/293
f 4/168/6 131/163/191 1/36/1
f 399/164/190 2/151/3 400/10/292
f 2/151/3 399/164/190 129/169/5
f 400/10/292 2/151/3 402/166/193
f 402/166/193 2/151/3 134/170/2
f 422/78/294 431/81/295 425/76/296
f 431/81/295 422/78/294 420/79/297
f 422/78/294 425/76/296 424/54/298
f 431/81/295 428/77/299 425/76/296
f 425/76/296 428/77/299 427/75/300
f 428/77/299 431/81/295 430/80/301
f 404/171/302 434/172/168 405/173/169
f 404/171/302 405/173/169 439/174/170
f 434/172/168 404/171/302 406/175/172
f 406/175/172 404/171/302 437/176/303
f 434/172/168 406/175/172 407/177/173
f 407/177/173 406/175/172 408/178/174
f 436/179/159 409/180/160 410/181/161
f 436/179/159 410/181/161 435/182/162
f 436/179/159 438/183/164 409/180/160
f 438/183/164 436/179/159 411/184/304
f 438/183/164 433/185/165 409/180/160
f 433/185/165 438/183/164 412/186/166
f 448/175/268 413/173/169 414/171/167
f 414/171/167 413/173/169 415/174/170
f 448/175/268 414/171/167 449/176/303
f 448/175/268 416/177/173 413/173/169
f 413/173/169 416/177/173 445/172/168
f 416/177/173 448/175/268 417/178/174
f 418/181/161 444/185/165 446/180/160
f 444/185/165 418/181/161 419/179/276
f 419/179/276 418/181/161 447/182/162
f 451/183/278 444/185/165 419/179/276
f 444/185/165 451/183/278 443/186/166
f 451/183/278 419/179/276 450/184/304
f 420/79/297 421/84/305 432/83/306
f 420/79/297 432/83/306 431/82/295
f 422/78/294 421/84/305 420/79/297
f 422/78/294 423/85/307 421/84/305
f 424/54/298 423/85/307 422/78/294
f 424/54/298 440/12/308 423/85/307
f 425/76/296 440/12/308 424/54/298
f 425/76/296 426/45/309 440/12/308
f 427/75/300 426/45/309 425/76/296
f 427/75/300 442/11/310 426/45/309
f 442/11/310 427/75/300 428/77/299
f 442/11/310 428/77/299 429/86/311
f 429/86/311 428/77/299 430/80/301
f 429/86/311 430/80/301 441/40/312
f 431/81/295 441/40/312 430/80/301
f 431/81/295 432/87/306 441/40/312
f 405/79/169 412/83/166 439/82/170
f 412/83/166 405/79/169 433/84/165
f 434/78/168 433/84/165 405/79/169
f 433/84/165 434/78/168 409/85/160
f 407/54/173 409/85/160 434/78/168
f 409/85/160 407/54/173 410/12/161
f 408/76/174 410/12/161 407/54/173
f 410/12/161 408/76/174 435/45/162
f 406/75/172 435/45/162 408/76/174
f 435/45/162 406/75/172 436/11/159
f 437/77/303 436/11/159 406/75/172
f 436/11/159 437/77/303 411/86/304
f 404/80/302 411/86/304 437/77/303
f 411/86/304 404/80/302 438/40/164
f 439/81/170 438/40/164 404/80/302
f 438/40/164 439/81/170 412/87/166
f 426/45/309 432/87/306 423/85/307
f 423/85/307 432/87/306 421/84/305
f 426/45/309 423/85/307 440/12/308
f 426/45/309 429/86/311 432/87/306
f 432/87/306 429/86/311 441/40/312
f 429/86/311 426/45/309 442/11/310
f 413/79/169 443/83/166 415/82/170
f 443/83/166 413/79/169 444/84/165
f 445/78/168 444/84/165 413/79/169
f 444/84/165 445/78/168 446/85/160
f 416/54/173 446/85/160 445/78/168
f 446/85/160 416/54/173 418/12/161
f 417/76/174 418/12/161 416/54/173
f 418/12/161 417/76/174 447/45/162
f 448/75/268 447/45/162 417/76/174
f 447/45/162 448/75/268 419/11/276
f 449/77/303 419/11/276 448/75/268
f 419/11/276 449/77/303 450/86/304
f 414/80/167 450/86/304 449/77/303
f 450/86/304 414/80/167 451/40/278
f 415/81/170 451/40/278 414/80/167
f 451/40/278 415/81/170 443/87/166
s 0
f 452/48/313 453/50/313 454/51/313
f 453/50/313 452/48/313 455/49/313
f 456/51/314 452/48/314 454/51/314
f 452/48/314 456/51/314 484/48/314
f 457/51/315 484/48/315 456/51/315
f 484/48/315 457/51/315 486/48/315
f 483/51/316 486/48/316 457/51/316
f 486/48/316 483/51/316 458/48/316
f 471/79/317 459/84/317 474/83/317
f 474/83/317 468/82/317 471/79/317
f 459/84/318 471/79/318 470/78/318
f 470/78/318 460/85/318 459/84/318
f 460/85/319 470/78/319 469/54/319
f 469/54/319 461/12/319 460/85/319
f 461/12/320 469/54/320 462/76/320
f 462/76/320 463/45/320 461/12/320
f 463/45/321 462/76/321 464/75/321
f 464/75/321 465/11/321 463/45/321
f 465/11/322 464/75/322 466/77/322
f 466/77/322 467/86/322 465/11/322
f 467/86/323 466/77/323 472/80/323
f 472/80/323 473/40/323 467/86/323
f 473/40/324 472/80/324 468/81/324
f 468/81/324 474/87/324 473/40/324
f 469/177/263 464/175/263 462/178/263
f 469/177/263 466/176/263 464/175/263
f 470/172/263 466/176/263 469/177/263
f 466/176/263 470/172/263 471/173/263
f 466/176/263 471/173/263 472/171/263
f 472/171/263 471/173/263 468/174/263
f 463/182/264 465/179/264 461/181/264
f 465/179/264 460/180/264 461/181/264
f 467/184/264 460/180/264 465/179/264
f 460/180/264 467/184/264 459/185/264
f 473/183/264 459/185/264 467/184/264
f 459/185/264 473/183/264 474/186/264
f 516/187/137 511/187/137 475/187/137
f 511/187/137 516/187/137 476/187/137
f 516/187/137 475/187/137 477/187/137
f 511/187/137 507/187/137 475/187/137
f 475/187/137 507/187/137 508/187/137
f 507/187/137 511/187/137 509/187/137
f 517/11/263 455/49/263 480/12/263
f 455/49/263 452/48/263 480/12/263
f 478/7/264 453/75/264 479/8/264
f 453/75/264 478/7/264 454/54/264
f 452/48/263 518/12/263 480/12/263
f 518/12/263 452/48/263 484/48/263
f 454/54/264 482/7/264 456/54/264
f 482/7/264 454/54/264 478/7/264
f 457/54/264 456/54/264 481/7/264
f 456/54/264 482/7/264 481/7/264
f 481/7/264 483/54/264 457/54/264
f 483/54/264 481/7/264 519/7/264
f 484/48/263 485/12/263 518/12/263
f 485/12/263 484/48/263 486/48/263
f 458/48/263 485/12/263 486/48/263
f 485/12/263 458/48/263 487/12/263
f 488/187/145 506/187/145 494/187/145
f 506/187/145 489/187/145 494/187/145
f 490/187/145 506/187/145 488/187/145
f 489/187/145 506/187/145 491/187/145
f 488/187/145 510/187/145 490/187/145
f 491/187/145 513/187/145 489/187/145
f 510/187/145 488/187/145 497/187/145
f 513/187/145 496/187/145 489/187/145
f 497/187/145 512/187/145 510/187/145
f 513/187/145 515/187/145 496/187/145
f 512/187/145 497/187/145 499/187/145
f 496/187/145 515/187/145 492/187/145
f 499/187/145 514/187/145 512/187/145
f 515/187/145 514/187/145 492/187/145
f 514/187/145 499/187/145 501/187/145
f 492/187/145 514/187/145 501/187/145
f 493/187/325 494/187/325 503/187/325
f 489/187/326 503/187/326 494/187/326
f 494/187/325 493/187/325 488/187/325
f 503/187/326 489/187/326 495/187/326
f 502/187/327 488/187/327 493/187/327
f 496/187/328 495/187/328 489/187/328
f 488/187/327 502/187/327 497/187/327
f 495/187/328 496/187/328 498/187/328
f 505/187/329 497/187/329 502/187/329
f 492/187/330 498/187/330 496/187/330
f 497/187/329 505/187/329 499/187/329
f 498/187/330 492/187/330 500/187/330
f 504/187/331 499/187/331 505/187/331
f 492/187/332 501/187/332 500/187/332
f 501/187/331 499/187/331 504/187/331
f 500/187/332 501/187/332 504/187/332
f 498/187/145 502/187/145 503/187/145
f 503/187/145 502/187/145 493/187/145
f 498/187/145 503/187/145 495/187/145
f 498/187/145 504/187/145 502/187/145
f 502/187/145 504/187/145 505/187/145
f 504/187/145 498/187/145 500/187/145
f 506/187/332 490/187/332 507/187/332
f 507/187/332 490/187/332 508/187/332
f 509/187/331 506/187/331 507/187/331
f 510/187/330 508/187/330 490/187/330
f 491/187/331 506/187/331 509/187/331
f 508/187/330 510/187/330 475/187/330
f 509/187/329 511/187/329 491/187/329
f 512/187/328 475/187/328 510/187/328
f 491/187/329 511/187/329 513/187/329
f 477/187/328 475/187/328 512/187/328
f 511/187/327 476/187/327 513/187/327
f 514/187/326 477/187/326 512/187/326
f 513/187/327 476/187/327 515/187/327
f 516/187/326 477/187/326 514/187/326
f 476/187/325 516/187/325 515/187/325
f 515/187/325 516/187/325 514/187/325
f 479/8/333 517/11/333 478/7/333
f 478/7/333 517/11/333 480/12/333
f 478/7/334 480/12/334 518/12/334
f 518/12/334 482/7/334 478/7/334
f 482/7/335 518/12/335 485/12/335
f 485/12/335 481/7/335 482/7/335
f 481/7/336 485/12/336 487/12/336
f 487/12/336 519/7/336 481/7/336
f 520/48/337 553/50/337 521/51/337
f 553/50/337 520/48/337 550/49/337
f 522/51/338 520/48/338 521/51/338
f 520/48/338 522/51/338 555/48/338
f 523/51/339 555/48/339 522/51/339
f 555/48/339 523/51/339 524/48/339
f 525/51/340 524/48/340 523/51/340
f 524/48/340 525/51/340 526/48/340
f 527/79/341 528/84/341 529/83/341
f 529/83/341 538/82/341 527/79/341
f 528/84/317 527/79/317 530/78/317
f 530/78/317 541/85/317 528/84/317
f 541/85/342 530/78/342 535/54/342
f 535/54/342 540/12/342 541/85/342
f 540/12/323 535/54/323 531/76/323
f 531/76/343 539/45/343 540/12/343
f 539/45/344 531/76/344 532/75/344
f 532/75/344 533/11/344 539/45/344
f 533/11/321 532/75/321 536/77/321
f 536/77/321 534/86/321 533/11/321
f 534/86/345 536/77/345 537/80/345
f 537/80/320 542/40/320 534/86/320
f 542/40/346 537/80/346 538/81/346
f 538/81/346 529/87/346 542/40/346
f 535/177/264 532/175/264 531/178/264
f 535/177/264 536/176/264 532/175/264
f 530/172/264 536/176/264 535/177/264
f 536/176/264 530/172/264 527/173/264
f 536/176/264 527/173/264 537/171/264
f 537/171/264 527/173/264 538/174/264
f 539/182/263 533/179/263 540/181/263
f 533/179/263 541/180/263 540/181/263
f 534/184/263 541/180/263 533/179/263
f 541/180/263 534/184/263 528/185/263
f 542/183/263 528/185/263 534/184/263
f 528/185/263 542/183/263 529/186/263
f 583/187/141 580/187/141 543/187/141
f 580/187/141 583/187/141 544/187/141
f 583/187/141 543/187/141 545/187/141
f 580/187/141 546/187/141 543/187/141
f 543/187/141 546/187/141 547/187/141
f 546/187/141 580/187/141 548/187/141
f 549/11/264 550/49/264 551/12/264
f 550/49/264 520/48/264 551/12/264
f 552/7/263 553/75/263 584/8/263
f 553/75/263 552/7/263 521/54/263
f 520/48/264 554/12/264 551/12/264
f 554/12/264 520/48/264 555/48/264
f 521/54/263 556/7/263 522/54/263
f 556/7/263 521/54/263 552/7/263
f 523/54/263 522/54/263 586/7/263
f 522/54/263 556/7/263 586/7/263
f 586/7/263 525/54/263 523/54/263
f 525/54/263 586/7/263 587/7/263
f 555/48/264 585/12/264 554/12/264
f 585/12/264 555/48/264 524/48/264
f 526/48/264 585/12/264 524/48/264
f 585/12/264 526/48/264 557/12/264
f 558/187/134 559/187/134 566/187/134
f 559/187/134 567/187/134 566/187/134
f 578/187/134 559/187/134 558/187/134
f 567/187/134 559/187/134 579/187/134
f 558/187/134 560/187/134 578/187/134
f 579/187/134 561/187/134 567/187/134
f 560/187/134 558/187/134 562/187/134
f 561/187/134 568/187/134 567/187/134
f 562/187/134 563/187/134 560/187/134
f 561/187/134 582/187/134 568/187/134
f 563/187/134 562/187/134 571/187/134
f 568/187/134 582/187/134 564/187/134
f 571/187/134 581/187/134 563/187/134
f 582/187/134 581/187/134 564/187/134
f 581/187/134 571/187/134 573/187/134
f 564/187/134 581/187/134 573/187/134
f 565/187/347 566/187/347 575/187/347
f 567/187/348 575/187/348 566/187/348
f 566/187/347 565/187/347 558/187/347
f 575/187/348 567/187/348 576/187/348
f 574/187/349 558/187/349 565/187/349
f 568/187/350 576/187/350 567/187/350
f 558/187/349 574/187/349 562/187/349
f 576/187/350 568/187/350 569/187/350
f 570/187/351 562/187/351 574/187/351
f 564/187/352 569/187/352 568/187/352
f 562/187/351 570/187/351 571/187/351
f 569/187/352 564/187/352 577/187/352
f 572/187/353 571/187/353 570/187/353
f 564/187/354 573/187/354 577/187/354
f 573/187/353 571/187/353 572/187/353
f 577/187/354 573/187/354 572/187/354
f 569/187/134 574/187/134 575/187/134
f 575/187/134 574/187/134 565/187/134
f 569/187/134 575/187/134 576/187/134
f 569/187/134 572/187/134 574/187/134
f 574/187/134 572/187/134 570/187/134
f 572/187/134 569/187/134 577/187/134
f 559/187/354 578/187/354 546/187/354
f 546/187/354 578/187/354 547/187/354
f 548/187/353 559/187/353 546/187/353
f 560/187/352 547/187/352 578/187/352
f 579/187/353 559/187/353 548/187/353
f 547/187/352 560/187/352 543/187/352
f 548/187/351 580/187/351 579/187/351
f 563/187/350 543/187/350 560/187/350
f 579/187/351 580/187/351 561/187/351
f 545/187/350 543/187/350 563/187/350
f 580/187/349 544/187/349 561/187/349
f 581/187/348 545/187/348 563/187/348
f 561/187/349 544/187/349 582/187/349
f 583/187/348 545/187/348 581/187/348
f 544/187/347 583/187/347 582/187/347
f 582/187/347 583/187/347 581/187/347
f 584/8/355 549/11/355 552/7/355
f 552/7/355 549/11/355 551/12/355
f 552/7/356 551/12/356 554/12/356
f 554/12/356 556/7/356 552/7/356
f 556/7/357 554/12/357 585/12/357
f 585/12/357 586/7/357 556/7/357
f 586/7/358 585/12/358 557/12/358
f 557/12/358 587/7/358 586/7/358
o Cube_006_Cube_070_85918211090205.001
v 1.531189 0.513942 -0.000000
v 1.531189 0.456581 0.057361
v 1.531189 0.497142 -0.040560
v -0.327252 0.411681 0.036013
v -0.327252 0.395037 -0.004169
v -0.327252 0.492045 0.036013
v -0.327252 0.451863 0.052657
v -0.327252 0.508689 -0.004169
v -0.292613 0.520885 -0.073191
v -0.249950 0.451863 -0.122172
v -0.292613 0.451863 -0.101780
v -0.249950 0.535304 -0.087610
v -0.249950 0.569866 -0.004169
v -0.292613 0.382841 -0.073191
v -0.249950 0.368422 -0.087610
v -0.327252 0.451863 -0.060995
v -0.327252 0.492045 -0.044351
v -0.327252 0.411681 -0.044351
v -0.249950 0.333860 -0.004169
v -0.292613 0.354251 -0.004169
v -0.292613 0.549475 -0.004169
v -0.292613 0.520885 0.064853
v -0.249950 0.535304 0.079272
v -0.249950 0.451863 0.113835
v -0.292613 0.451863 0.093443
v -0.292613 0.382841 0.064853
v -0.249950 0.368422 0.079272
v 1.442474 0.456581 -0.119115
v 1.491436 0.386909 -0.069672
v 1.442474 0.372354 -0.084227
v 1.442474 0.337466 -0.000000
v 1.491436 0.456581 -0.098532
v 1.491436 0.526254 -0.069672
v 1.442474 0.540808 -0.084227
v 1.531189 0.456581 -0.057361
v 1.531189 0.416021 -0.040560
v 1.442474 0.575696 -0.000000
v 1.531189 0.399220 -0.000000
v 1.491436 0.358050 -0.000000
v 1.491436 0.386909 0.069672
v 1.531189 0.416021 0.040560
v 1.442474 0.372354 0.084227
v 1.442474 0.456581 0.119115
v 1.491436 0.456581 0.098532
v 1.491436 0.555113 -0.000000
v 1.531189 0.497142 0.040560
v 1.491436 0.526254 0.069672
v 1.442474 0.540808 0.084227
vn 0.8935 0.4491 -0.0000
vn 0.8935 -0.0000 0.4490
vn 0.8935 0.3175 -0.3175
vn -0.9094 -0.2941 0.2941
vn -0.9094 -0.4159 -0.0000
vn -0.9094 0.2941 0.2941
vn -0.9094 -0.0000 0.4159
vn -0.9094 0.4159 -0.0000
vn -0.5865 0.5727 -0.5727
vn -0.4312 -0.0000 -0.9022
vn -0.5865 -0.0000 -0.8099
vn -0.4312 0.6380 -0.6380
vn -0.4312 0.9022 -0.0000
vn -0.5865 -0.5727 -0.5727
vn -0.4312 -0.6380 -0.6380
vn -0.9094 -0.0000 -0.4159
vn -0.9094 0.2941 -0.2941
vn -0.9094 -0.2941 -0.2941
vn -0.4312 -0.9022 -0.0000
vn -0.5865 -0.8099 -0.0000
vn -0.5865 0.8099 -0.0000
vn -0.5865 0.5727 0.5727
vn -0.4312 0.6380 0.6380
vn -0.4312 -0.0000 0.9022
vn -0.5865 -0.0000 0.8099
vn -0.5865 -0.5727 0.5727
vn -0.4312 -0.6380 0.6380
vn 0.3875 -0.0000 -0.9219
vn 0.5431 -0.5937 -0.5937
vn 0.3875 -0.6518 -0.6518
vn 0.3876 -0.9218 -0.0000
vn 0.5431 -0.0000 -0.8397
vn 0.5431 0.5937 -0.5937
vn 0.3875 0.6518 -0.6519
vn 0.8935 -0.0000 -0.4490
vn 0.8935 -0.3175 -0.3175
vn 0.3875 0.9219 -0.0000
vn 0.8935 -0.4491 -0.0000
vn 0.5431 -0.8397 -0.0000
vn 0.5431 -0.5937 0.5937
vn 0.8935 -0.3175 0.3175
vn 0.3875 -0.6518 0.6518
vn 0.3875 -0.0000 0.9219
vn 0.5431 -0.0000 0.8397
vn 0.5431 0.8397 -0.0000
vn 0.8935 0.3175 0.3175
vn 0.5431 0.5937 0.5937
vn 0.3875 0.6518 0.6519
vt 0.919706 0.080294
vt 0.919706 0.419706
vt 0.990000 0.250000
vt 0.510000 0.250000
vt 0.750000 0.490000
vt 0.580294 0.419706
vt 0.750000 0.010000
vt 0.580294 0.080294
vt 0.419706 0.080294
vt 0.080294 0.080294
vt 0.250000 0.010000
vt 0.419706 0.419706
vt 0.490000 0.250000
vt 0.080294 0.419706
vt 0.250000 0.490000
vt 0.010000 0.250000
vt 0.375000 1.000000
vt 0.500000 1.000000
vt 0.250000 1.000000
vt 0.625000 1.000000
vt 0.750000 1.000000
vt 0.125000 1.000000
vt 0.000000 1.000000
vt 0.875000 1.000000
vt 1.000000 1.000000
vt 0.500000 0.500000
vt 0.625000 0.500000
vt 0.750000 0.500000
vt 0.375000 0.500000
vt 0.250000 0.500000
vt 0.875000 0.500000
vt 1.000000 0.500000
vt 0.125000 0.500000
vt 0.000000 0.500000
s 1
f 623/188/394 628/189/399 625/190/396
f 623/188/394 588/191/359 628/189/399
f 628/189/399 588/191/359 589/192/360
f 589/192/360 588/191/359 633/193/404
f 622/194/393 588/191/359 623/188/394
f 588/191/359 622/194/393 590/195/361
f 605/196/376 604/197/375 603/198/374
f 604/197/375 605/196/376 591/199/362
f 591/199/362 605/196/376 592/200/363
f 604/197/375 591/199/362 593/201/364
f 593/201/364 591/199/362 594/202/365
f 604/197/375 593/201/364 595/203/366
f 596/204/367 597/205/368 598/205/369
f 597/205/368 596/204/367 599/204/370
f 596/204/367 600/206/371 599/204/370
f 598/205/369 597/205/368 601/207/372
f 597/205/368 602/207/373 601/207/372
f 596/204/367 598/205/369 603/205/374
f 601/207/372 603/205/374 598/205/369
f 604/204/375 596/204/367 603/205/374
f 595/206/366 596/204/367 604/204/375
f 603/205/374 601/207/372 605/207/376
f 606/208/377 601/207/372 602/207/373
f 601/207/372 592/208/363 605/207/376
f 601/207/372 606/208/377 607/208/378
f 601/207/372 607/208/378 592/208/363
f 596/204/367 595/206/366 608/206/379
f 600/206/371 596/204/367 608/206/379
f 595/206/366 609/209/380 608/206/379
f 609/209/380 600/206/371 608/206/379
f 609/209/380 595/206/366 593/209/364
f 600/206/371 609/209/380 610/209/381
f 594/210/365 609/209/380 593/209/364
f 611/210/382 610/209/381 609/209/380
f 609/209/380 594/210/365 612/210/383
f 612/210/383 611/210/382 609/209/380
f 613/211/384 592/208/363 607/208/378
f 607/208/378 606/208/377 613/211/384
f 592/208/363 613/211/384 591/211/362
f 606/208/377 614/211/385 613/211/384
f 613/211/384 594/212/365 591/211/362
f 611/212/382 613/211/384 614/211/385
f 594/212/365 613/211/384 612/212/383
f 613/211/384 611/212/382 612/212/383
f 615/213/386 616/214/387 617/214/388
f 616/214/387 618/215/389 617/214/388
f 616/214/387 615/213/386 619/213/390
f 615/213/386 620/216/391 619/213/390
f 620/216/391 615/213/386 621/216/392
f 616/214/387 619/213/390 622/213/393
f 620/216/391 622/213/393 619/213/390
f 623/214/394 616/214/387 622/213/393
f 624/217/395 620/216/391 621/216/392
f 625/215/396 616/214/387 623/214/394
f 622/213/393 620/216/391 590/216/361
f 616/214/387 625/215/396 626/215/397
f 618/215/389 616/214/387 626/215/397
f 625/215/396 627/218/398 626/215/397
f 627/218/398 618/215/389 626/215/397
f 627/218/398 625/215/396 628/218/399
f 618/215/389 627/218/398 629/218/400
f 589/219/360 627/218/398 628/218/399
f 627/218/398 630/219/401 629/218/400
f 627/218/398 589/219/360 631/219/402
f 630/219/401 627/218/398 631/219/402
f 632/217/403 590/216/361 620/216/391
f 620/216/391 624/217/395 632/217/403
f 590/216/361 632/217/403 588/217/359
f 632/217/403 633/220/404 588/217/359
f 632/217/403 624/217/395 634/220/405
f 632/217/403 634/220/405 633/220/404
f 624/217/395 635/220/406 634/220/405
f 634/220/405 589/221/360 633/220/404
f 630/221/401 634/220/405 635/220/406
f 589/221/360 634/220/405 631/221/402
f 634/220/405 630/221/401 631/221/402
